<?xml version="1.0" encoding="UTF-8"?><svg xmlns="http://www.w3.org/2000/svg" xmlns:xlink="http://www.w3.org/1999/xlink" contentScriptType="text/ecmascript" width="2880" zoomAndPan="magnify" contentStyleType="text/css" viewBox="0 0 2880 1619.99993" height="1619.99993" preserveAspectRatio="xMidYMid meet" version="1.0"><defs><filter x="0%" y="0%" width="100%" xmlns:xlink="http://www.w3.org/1999/xlink" xlink:type="simple" xlink:actuate="onLoad" height="100%" id="filter-remove-color" xlink:show="other"><feColorMatrix values="0 0 0 0 1 0 0 0 0 1 0 0 0 0 1 0 0 0 1 0" color-interpolation-filters="sRGB"/></filter><mask id="mask-0"><g filter="url(#filter-remove-color)"><rect x="-288" width="3456" fill="rgb(0%, 0%, 0%)" y="-161.999993" height="1943.999916" fill-opacity="0.549"/></g></mask><clipPath id="clip-0"><path d="M 74 1 L 957 1 L 957 452 L 74 452 Z M 74 1 " clip-rule="nonzero"/></clipPath><clipPath id="clip-1"><path d="M 1.523438 251.453125 L 998.894531 1.351562 L 1089.738281 363.636719 L 92.371094 613.734375 Z M 1.523438 251.453125 " clip-rule="nonzero"/></clipPath><clipPath id="clip-2"><path d="M 1.523438 251.453125 L 998.894531 1.351562 L 1089.738281 363.636719 L 92.371094 613.734375 Z M 1.523438 251.453125 " clip-rule="nonzero"/></clipPath><clipPath id="clip-3"><path d="M 75.824219 541.566406 L 74.566406 541.363281 C 82.59375 465.960938 133.105469 389.230469 209.425781 336.246094 C 268.816406 294.933594 343.003906 267.179688 442.542969 248.953125 C 482.667969 241.65625 523.765625 236.183594 563.566406 231.039062 C 605.195312 225.609375 648.328125 219.972656 690.359375 212.023438 C 738.851562 202.972656 801.269531 188.183594 854.492188 154.632812 C 911.328125 118.96875 951.539062 64.507812 990.535156 12.078125 C 992.96875 8.703125 995.566406 5.289062 998.164062 1.875 L 999.21875 2.648438 C 996.621094 6.0625 994.1875 9.433594 991.589844 12.847656 C 952.476562 65.480469 912.265625 119.941406 855.304688 155.8125 C 801.960938 189.5625 739.339844 204.230469 690.726562 213.484375 C 648.695312 221.433594 605.5625 227.070312 563.933594 232.5 C 524.132812 237.644531 483.03125 243.117188 443.070312 250.375 C 343.695312 268.558594 269.832031 296.234375 210.398438 337.382812 C 134.039062 390.203125 83.769531 466.527344 75.824219 541.566406 Z M 91.550781 495.488281 C 98.808594 479.679688 107.449219 464.5625 117.511719 450.296875 C 146.765625 407.90625 182.074219 371.078125 219.625 343.878906 C 279.460938 300.898438 356.773438 270.460938 449.449219 253.785156 C 456.070312 252.640625 462.691406 251.5 469.511719 250.480469 C 501.070312 245.503906 533.277344 242.433594 564.507812 239.609375 C 589.488281 237.316406 615.113281 234.863281 640.335938 231.472656 C 661.046875 228.699219 679.324219 225.84375 695.851562 222.90625 C 733.175781 216.136719 762.980469 208.316406 789.984375 198.265625 C 814.023438 189.472656 837.125 177.636719 858.601562 163.445312 C 880.765625 148.5625 902.402344 129.496094 924.398438 104.984375 C 944 83.320312 962.339844 59.382812 980.03125 36.296875 C 986.808594 27.515625 993.707031 18.535156 1000.644531 9.714844 L 999.589844 8.941406 C 992.652344 17.761719 985.753906 26.746094 978.976562 35.523438 C 943.753906 81.65625 907.152344 129.167969 857.828125 162.429688 C 836.515625 176.582031 813.535156 188.214844 789.496094 197.007812 C 762.65625 207.019531 732.847656 214.835938 695.6875 221.566406 C 678.996094 224.542969 660.882812 227.355469 640.171875 230.132812 C 614.949219 233.523438 589.324219 235.976562 564.34375 238.269531 C 533.113281 241.09375 500.742188 244.203125 469.1875 249.179688 C 462.527344 250.160156 455.746094 251.339844 449.125 252.484375 C 356.328125 269.363281 278.8125 299.679688 218.851562 342.863281 C 181.140625 370.105469 145.667969 406.972656 116.457031 449.527344 C 106.394531 463.792969 97.632812 479.113281 90.371094 494.917969 C 82.871094 511.132812 78.007812 528.238281 75.707031 545.910156 L 76.964844 546.113281 C 79.148438 528.644531 84.171875 511.496094 91.550781 495.488281 Z M 95.292969 500.765625 C 104.054688 484.753906 114.398438 470.9375 124.382812 458.417969 C 151.246094 424.398438 187.445312 381.476562 229.175781 350.289062 C 289.824219 305.035156 368.394531 272.726562 456.316406 257.070312 C 462.9375 255.925781 469.558594 254.785156 476.21875 253.804688 C 506.675781 249.277344 538.03125 247.628906 568.332031 245.902344 C 593.878906 244.503906 620.277344 243.066406 646.066406 239.878906 C 666.539062 237.507812 684.691406 234.855469 701.546875 231.839844 C 738.097656 225.4375 768.675781 217.25 795.066406 206.832031 C 818.820312 197.597656 841.316406 185.394531 862.140625 170.675781 C 905.375 139.976562 938.285156 97.703125 970.136719 56.734375 C 980.445312 43.445312 991.320312 29.667969 1002.152344 16.414062 L 1001.257812 15.605469 C 990.261719 28.894531 979.550781 42.632812 969.242188 55.921875 C 937.347656 96.730469 904.601562 138.960938 861.53125 169.617188 C 840.867188 184.296875 818.332031 196.335938 794.742188 205.535156 C 768.347656 215.949219 737.769531 224.136719 701.382812 230.5 C 684.527344 233.515625 666.496094 235.964844 646.066406 238.5 C 620.441406 241.644531 594.039062 243.082031 568.492188 244.480469 C 538.195312 246.207031 506.839844 247.855469 476.378906 252.382812 C 469.71875 253.363281 463.097656 254.503906 456.480469 255.648438 C 368.230469 271.386719 289.496094 303.734375 228.6875 349.03125 C 186.792969 380.257812 150.636719 423.34375 123.773438 457.363281 C 113.832031 470.042969 103.484375 483.863281 94.722656 499.871094 C 85.027344 517.671875 79.3125 534.128906 77.292969 550.175781 L 78.554688 550.378906 C 80.125 534.613281 85.71875 518.363281 95.292969 500.765625 Z M 99.195312 506.003906 C 108.730469 491.699219 120.214844 478.976562 131.253906 466.539062 C 137.339844 459.832031 143.222656 453 149.71875 445.847656 C 177.4375 414.550781 205.882812 382.03125 238.722656 356.703125 C 300.914062 308.644531 378.550781 275.363281 463.0625 260.558594 C 469.683594 259.417969 476.34375 258.4375 483.003906 257.457031 C 512.691406 253.292969 543.640625 252.785156 573.414062 252.398438 C 599.203125 251.976562 625.6875 251.550781 651.558594 248.691406 C 671.742188 246.566406 689.816406 244.277344 706.875 241.382812 C 743.179688 235.386719 773.71875 227.039062 799.949219 215.96875 C 823.417969 206.285156 845.464844 193.679688 865.640625 178.429688 C 903.511719 149.765625 933.378906 111.886719 962.148438 75.144531 C 975.460938 57.992188 989.335938 40.351562 1003.824219 23.765625 L 1002.929688 22.957031 C 988.441406 39.539062 974.566406 57.179688 961.09375 74.371094 C 932.484375 111.074219 902.78125 148.914062 864.867188 177.414062 C 844.691406 192.664062 822.808594 205.230469 799.5 214.875 C 773.230469 225.777344 742.855469 234.085938 706.589844 240.246094 C 689.691406 243.097656 671.457031 245.425781 651.433594 247.511719 C 625.726562 250.332031 599.082031 250.796875 573.453125 251.179688 C 543.722656 251.730469 512.773438 252.238281 482.878906 256.28125 C 476.21875 257.257812 469.558594 258.238281 462.941406 259.378906 C 378.101562 274.265625 300.304688 307.585938 237.992188 355.847656 C 205.191406 381.34375 176.542969 413.738281 148.863281 445.199219 C 142.574219 452.472656 136.488281 459.179688 130.398438 465.886719 C 119.199219 478.367188 107.714844 491.089844 98.21875 505.558594 C 86.820312 522.75 80.167969 538.921875 77.988281 555.007812 L 79.246094 555.210938 C 81.429688 539.125 87.914062 522.992188 99.195312 506.003906 Z M 103.136719 511.402344 C 111.660156 500.632812 121.238281 491.324219 131.386719 481.527344 C 133.578125 479.25 135.972656 477.097656 138.328125 474.777344 C 151.234375 462.21875 163.8125 448.355469 177.207031 433.601562 C 199.527344 409.011719 222.699219 383.6875 248.273438 363.113281 C 310.949219 312.863281 389.640625 277.589844 469.929688 263.84375 C 476.550781 262.703125 483.210938 261.722656 489.75 260.945312 C 519.191406 257.1875 549.738281 257.820312 579.429688 258.488281 C 604.9375 259 631.5 259.589844 657.007812 257.339844 C 677.761719 255.417969 695.875 253.292969 712.160156 250.761719 C 748.347656 244.96875 778.679688 236.5 804.828125 225.105469 C 827.851562 215.015625 849.570312 201.800781 869.097656 186.023438 C 902.75 159.109375 929.652344 124.5625 955.621094 91.113281 C 971.449219 70.910156 987.761719 49.898438 1005.414062 30.792969 L 1004.519531 29.980469 C 986.867188 49.085938 970.511719 69.9375 954.726562 90.300781 C 928.71875 123.589844 901.8125 158.136719 868.488281 184.96875 C 848.960938 200.742188 827.363281 213.757812 804.503906 223.808594 C 778.515625 235.160156 748.34375 243.589844 712.160156 249.382812 C 695.875 251.910156 677.800781 254.199219 657.046875 256.121094 C 631.539062 258.371094 605.140625 257.742188 579.46875 257.269531 C 549.777344 256.601562 519.234375 255.96875 489.625 259.769531 C 483.085938 260.542969 476.265625 261.566406 469.804688 262.664062 C 389.355469 276.449219 310.378906 311.96875 247.542969 362.261719 C 221.96875 382.832031 198.796875 408.15625 176.3125 432.789062 C 162.878906 447.382812 150.296875 461.242188 137.433594 473.96875 C 135.078125 476.285156 132.722656 478.601562 130.492188 480.714844 C 120.34375 490.511719 110.808594 499.984375 102.082031 510.632812 C 88.933594 527.054688 81.511719 542.902344 79.25 559.355469 L 80.511719 559.558594 C 82.691406 543.46875 90.113281 527.621094 103.136719 511.402344 Z M 106.71875 516.722656 C 114.753906 508.144531 123.640625 500.910156 132.898438 493.0625 C 136.753906 489.851562 140.894531 486.394531 144.871094 482.980469 C 162.449219 467.695312 178.964844 449.566406 196.621094 430.460938 C 215.855469 409.40625 235.78125 387.660156 257.378906 369.808594 C 321.269531 316.835938 399.023438 280.589844 476.347656 267.414062 C 482.644531 266.355469 489.140625 265.414062 496.210938 264.679688 C 525.246094 261.371094 555.386719 263.136719 584.511719 264.984375 C 610.101562 266.511719 636.746094 268.117188 662.171875 266.234375 C 683.375 264.714844 700.835938 262.753906 717.121094 260.222656 C 753.1875 254.632812 783.359375 246.203125 809.34375 234.164062 C 832.082031 223.625 853.195312 210.042969 872.230469 193.699219 C 902.105469 168.25 926.613281 136.546875 950.3125 105.738281 C 968.003906 82.652344 986.222656 58.917969 1006.71875 38.066406 L 1005.824219 37.253906 C 985.328125 58.105469 967.148438 82.003906 949.253906 104.96875 C 925.71875 135.734375 901.210938 167.4375 871.457031 192.683594 C 852.582031 208.988281 831.472656 222.570312 808.855469 232.902344 C 783.03125 244.90625 753.023438 253.292969 717.121094 258.84375 C 700.835938 261.371094 683.332031 263.171875 662.171875 264.851562 C 636.746094 266.738281 610.261719 265.089844 584.671875 263.5625 C 555.386719 261.753906 525.246094 259.988281 496.046875 263.339844 C 488.980469 264.074219 482.480469 265.011719 476.1875 266.074219 C 398.65625 279.125 320.617188 315.617188 256.769531 368.753906 C 235.050781 386.804688 215.125 408.550781 195.886719 429.609375 C 178.4375 448.835938 161.757812 467.003906 144.300781 482.085938 C 140.203125 485.707031 136.183594 488.957031 132.328125 492.167969 C 123.03125 499.855469 114.183594 507.253906 105.984375 515.871094 C 91.253906 531.480469 82.9375 547.207031 80.351562 563.742188 L 81.609375 563.945312 C 83.914062 547.652344 92.269531 532.089844 106.71875 516.722656 Z M 110.621094 521.960938 C 118.371094 515.007812 126.613281 509.316406 135.261719 503.175781 C 140.699219 499.394531 146.261719 495.410156 151.90625 491.058594 C 173.339844 474.632812 192.535156 453.414062 213.109375 430.816406 C 230.277344 411.832031 248.011719 392.363281 267.050781 376.019531 C 331.832031 320.402344 408.613281 283.019531 483.214844 270.699219 C 489.671875 269.597656 496.375 268.78125 502.914062 268.003906 C 531.503906 264.980469 561.441406 268.007812 590.324219 270.953125 C 615.996094 273.496094 642.398438 276.199219 667.742188 274.679688 C 689.1875 273.445312 706.691406 271.644531 722.695312 269.359375 C 758.675781 264.136719 788.769531 255.382812 814.347656 243.097656 C 836.800781 232.113281 857.421875 217.960938 875.808594 201.089844 C 902.398438 176.984375 924.59375 147.761719 945.9375 119.269531 C 965.25 93.707031 985.171875 67.125 1008.269531 44.929688 L 1007.332031 43.953125 C 984.117188 66.355469 964.152344 92.773438 944.878906 118.5 C 923.496094 146.828125 901.503906 176.171875 875.039062 200.078125 C 856.8125 216.90625 836.148438 230.894531 813.859375 241.835938 C 788.320312 254.285156 758.351562 262.835938 722.53125 268.019531 C 706.527344 270.304688 689.1875 272.0625 667.742188 273.296875 C 642.398438 274.816406 615.996094 272.113281 590.484375 269.53125 C 561.441406 266.625 531.503906 263.597656 502.75 266.664062 C 496.171875 267.277344 489.511719 268.257812 482.890625 269.402344 C 408.125 281.761719 331.058594 319.386719 266.113281 375.042969 C 246.914062 391.429688 229.21875 411.0625 212.054688 430.042969 C 191.640625 452.601562 172.445312 473.820312 151.132812 490.042969 C 145.488281 494.394531 139.929688 498.378906 134.488281 502.160156 C 125.839844 508.300781 117.601562 513.992188 109.847656 520.945312 C 93.613281 535.378906 84.117188 551.226562 81.449219 568.128906 L 82.710938 568.332031 C 85.339844 551.957031 94.707031 536.3125 110.621094 521.960938 Z M 114.402344 527.402344 C 122.074219 521.507812 130.070312 516.910156 138.636719 511.828125 C 145.257812 507.921875 152.035156 503.976562 158.816406 499.34375 C 183.457031 482.628906 204.601562 458.851562 227.289062 433.648438 C 242.910156 416.089844 259.265625 398 276.476562 382.632812 C 342.152344 324.378906 417.996094 286.019531 489.960938 274.1875 C 496.257812 273.128906 502.796875 272.351562 509.699219 271.65625 C 538.046875 269.039062 567.578125 273.203125 596.378906 277.203125 C 621.972656 280.800781 648.292969 284.5625 673.394531 283.449219 C 694.554688 282.460938 711.980469 281.027344 728.144531 278.699219 C 764.328125 273.597656 794.257812 264.882812 819.351562 252.03125 C 841.355469 240.640625 861.53125 226.085938 879.269531 208.6875 C 903.054688 185.800781 923.136719 158.488281 942.453125 132.230469 C 962.902344 104.308594 984.125 75.332031 1009.695312 51.996094 L 1008.757812 51.023438 C 983.027344 74.398438 961.804688 103.375 941.191406 131.339844 C 921.917969 157.757812 901.957031 184.867188 878.171875 207.753906 C 860.554688 224.949219 840.378906 239.503906 818.535156 250.851562 C 793.445312 263.707031 763.839844 272.339844 727.65625 277.441406 C 711.492188 279.765625 694.066406 281.199219 673.070312 282.148438 C 647.96875 283.261719 621.644531 279.503906 596.21875 275.863281 C 567.417969 271.863281 537.679688 267.574219 509.332031 270.195312 C 502.429688 270.890625 495.890625 271.667969 489.59375 272.726562 C 417.425781 284.433594 341.5 323.160156 275.5 381.496094 C 258.128906 396.90625 241.9375 414.953125 226.148438 432.554688 C 203.625 457.714844 182.480469 481.492188 157.960938 498 C 151.183594 502.636719 144.402344 506.582031 137.785156 510.488281 C 129.21875 515.570312 121.21875 520.167969 113.546875 526.0625 C 101.371094 535.332031 85.945312 550.941406 82.347656 572.394531 L 83.605469 572.59375 C 87.367188 551.792969 102.34375 536.46875 114.402344 527.402344 Z M 118.140625 532.679688 C 125.855469 527.636719 133.855469 523.730469 142.503906 519.664062 C 150.054688 516.042969 157.890625 512.179688 165.6875 507.460938 C 193.292969 490.867188 217.359375 463.59375 240.449219 437.253906 C 254.9375 420.671875 269.996094 403.601562 286.027344 389.046875 C 352.472656 328.351562 427.300781 288.691406 496.664062 277.515625 C 503.164062 276.578125 509.703125 275.800781 516.28125 275.1875 C 544.183594 272.851562 573.675781 278.234375 602.113281 283.539062 C 627.460938 288.234375 653.867188 293.007812 678.722656 292.300781 C 696.917969 291.882812 715.238281 290.570312 733.308594 288.285156 C 769.253906 283.585938 798.816406 274.792969 824.070312 261.207031 C 845.789062 249.371094 865.519531 234.410156 882.605469 216.484375 C 903.914062 194.734375 922.210938 169.253906 939.660156 144.5 C 961.121094 114.425781 983.15625 83.171875 1011.039062 59.429688 L 1010.269531 58.414062 C 982.421875 82.320312 960.230469 113.613281 938.765625 143.6875 C 921.277344 168.277344 903.019531 193.921875 881.832031 215.46875 C 864.867188 233.191406 845.179688 248.316406 823.582031 259.949219 C 798.609375 273.289062 769.046875 282.085938 733.308594 286.902344 C 715.234375 289.1875 696.917969 290.5 678.722656 290.921875 C 653.863281 291.628906 627.621094 286.8125 602.316406 282.277344 C 573.714844 277.015625 544.222656 271.632812 516.160156 274.007812 C 509.578125 274.621094 503.039062 275.398438 496.378906 276.378906 C 426.8125 287.433594 351.660156 327.171875 284.929688 388.113281 C 268.9375 402.828125 253.882812 419.902344 239.394531 436.484375 C 216.300781 462.824219 192.398438 490.058594 164.914062 506.445312 C 157.117188 511.164062 149.402344 514.824219 141.894531 518.609375 C 133.449219 522.796875 125.285156 526.746094 117.371094 531.664062 C 93.296875 547.199219 85.671875 564.996094 83.730469 577.226562 L 84.992188 577.429688 C 88.550781 555.816406 105.070312 541.136719 118.140625 532.679688 Z M 122.046875 537.917969 C 129.960938 533.6875 138.125 530.433594 146.609375 527.09375 C 155.097656 523.757812 163.910156 520.339844 172.554688 515.582031 C 203.046875 499.472656 228.332031 470.167969 252.921875 441.554688 C 266.558594 425.699219 280.601562 409.402344 295.535156 395.296875 C 381.542969 314.152344 456.179688 288.1875 503.53125 280.800781 C 510.03125 279.863281 516.570312 279.085938 523.027344 278.675781 C 550.6875 276.746094 579.933594 283.226562 608.128906 289.628906 C 633.355469 295.214844 659.519531 301.089844 684.292969 300.746094 C 702.410156 300.695312 720.765625 299.542969 738.679688 297.296875 C 774.5 292.804688 804.019531 283.847656 828.867188 270.019531 C 849.167969 258.710938 867.839844 243.667969 885.980469 223.753906 C 905.136719 203.0625 921.570312 179.082031 937.515625 155.917969 C 959.667969 123.769531 982.550781 90.402344 1012.546875 66.132812 L 1011.777344 65.117188 C 981.617188 89.429688 958.734375 122.796875 936.457031 155.148438 C 920.511719 178.3125 904.082031 202.289062 885.085938 222.941406 C 866.90625 242.695312 848.394531 257.699219 828.257812 268.964844 C 803.410156 282.792969 774.050781 291.707031 738.394531 296.160156 C 720.441406 298.246094 702.082031 299.394531 684.007812 299.609375 C 659.394531 299.910156 633.234375 294.039062 608.003906 288.449219 C 579.648438 282.089844 550.199219 275.488281 522.417969 277.621094 C 515.796875 278.070312 509.257812 278.847656 502.761719 279.785156 C 416.539062 293.289062 341.765625 349.683594 294.15625 394.605469 C 279.21875 408.710938 265.175781 425.011719 251.542969 440.863281 C 227.234375 469.234375 201.949219 498.539062 171.621094 514.605469 C 162.933594 519.203125 154.121094 522.621094 145.839844 526.082031 C 137.191406 529.457031 129.191406 532.671875 121.109375 536.945312 C 109.253906 543.371094 88.835938 557.640625 84.34375 581.734375 L 85.605469 581.9375 C 90.378906 558.292969 110.515625 544.261719 122.046875 537.917969 Z M 125.949219 543.15625 C 134.152344 539.371094 142.476562 536.765625 151.125 534.078125 C 160.421875 531.230469 170.007812 528.136719 179.589844 523.660156 C 212.84375 508.242188 239.300781 476.742188 264.867188 446.5 C 277.773438 431.175781 290.921875 415.449219 305.085938 401.707031 C 352.980469 355.160156 427.46875 296.941406 510.238281 284.128906 C 516.371094 283.109375 522.949219 282.496094 529.730469 282.003906 C 556.945312 280.359375 585.992188 288.097656 614.101562 295.554688 C 639.25 302.199219 665.332031 309.128906 689.863281 309.191406 C 708.019531 309.300781 726.296875 308.519531 744.25 306.433594 C 779.988281 302.308594 809.46875 293.1875 833.992188 278.75 C 853.722656 267.242188 872.070312 251.589844 889.722656 231.101562 C 906.847656 211.265625 921.902344 188.671875 936.304688 166.925781 C 958.984375 132.75 982.230469 97.390625 1014.460938 73.078125 L 1013.691406 72.0625 C 981.5 96.539062 957.925781 131.976562 935.289062 166.320312 C 920.886719 188.0625 905.832031 210.65625 888.707031 230.492188 C 871.21875 250.9375 852.992188 266.386719 833.261719 277.898438 C 808.738281 292.335938 779.542969 301.210938 744.003906 305.460938 C 726.011719 307.378906 707.777344 308.328125 689.78125 308.175781 C 665.414062 308.070312 639.371094 301.304688 614.386719 294.621094 C 586.273438 287.164062 557.066406 279.464844 529.648438 280.988281 C 522.867188 281.480469 516.289062 282.09375 509.992188 283.152344 C 426.859375 295.882812 352.085938 354.351562 304.070312 401.097656 C 290.066406 414.796875 276.757812 430.570312 263.851562 445.890625 C 238.449219 476.09375 212.113281 507.390625 179.019531 522.765625 C 169.4375 527.242188 159.976562 530.132812 150.71875 533.144531 C 141.90625 535.875 133.742188 538.4375 125.378906 542.261719 C 115.148438 546.898438 90.746094 560.445312 85.851562 586.363281 L 87.109375 586.566406 C 91.925781 561.011719 115.878906 547.753906 125.949219 543.15625 Z M 129.566406 548.636719 C 138.09375 545.460938 146.542969 543.34375 155.515625 541.265625 C 165.585938 538.742188 176.023438 536.296875 186.214844 532.1875 C 222.273438 517.621094 249.625 484.167969 276.082031 451.976562 C 288.257812 437.183594 300.835938 421.941406 314.066406 408.605469 C 384.28125 338.160156 452.328125 297.613281 516.535156 287.902344 C 523.035156 286.964844 529.449219 286.390625 536.070312 285.9375 C 563.039062 284.703125 591.84375 293.539062 619.875 302.050781 C 644.941406 309.75 670.78125 317.777344 695.070312 318.25 C 713.144531 318.722656 731.421875 317.9375 749.292969 316.222656 C 785.074219 312.257812 814.191406 303.054688 838.589844 288.128906 C 857.75 276.417969 875.488281 260.402344 892.9375 239.101562 C 908.398438 220.203125 922.03125 198.824219 935.136719 178.097656 C 958.015625 141.96875 981.667969 104.785156 1015.644531 80.550781 L 1014.875 79.535156 C 980.609375 104.011719 956.835938 141.402344 933.957031 177.53125 C 920.851562 198.257812 907.382812 219.59375 891.921875 238.496094 C 874.796875 259.710938 857.0625 275.726562 838.019531 287.238281 C 813.78125 302.121094 784.789062 311.117188 749.171875 315.042969 C 731.339844 316.921875 713.023438 317.546875 695.109375 317.03125 C 670.984375 316.515625 645.1875 308.652344 620.28125 300.910156 C 592.207031 292.238281 563.402344 283.402344 536.109375 284.71875 C 529.613281 284.96875 522.910156 285.785156 516.574219 286.683594 C 452.203125 296.433594 383.835938 337.0625 313.5 407.714844 C 300.105469 421.085938 287.566406 436.492188 275.390625 451.289062 C 248.933594 483.480469 221.703125 516.726562 185.972656 531.210938 C 175.78125 535.320312 165.382812 537.929688 155.433594 540.25 C 146.824219 542.410156 137.851562 544.488281 129.324219 547.664062 C 106.421875 556.167969 90.796875 572.347656 87.15625 590.871094 L 88.414062 591.074219 C 91.769531 572.792969 107.152344 557.019531 129.566406 548.636719 Z M 133.472656 553.875 C 142.28125 551.148438 151.378906 549.558594 160.316406 548.007812 C 171.078125 546.171875 182.285156 544.050781 193.25 540.265625 C 231.785156 526.632812 260.070312 491.390625 287.460938 457.414062 C 299.023438 442.945312 311.15625 427.988281 323.78125 414.976562 C 394.398438 342.011719 461.671875 300.449219 523.605469 291.308594 C 529.941406 290.410156 536.519531 289.796875 543.019531 289.550781 C 569.703125 288.554688 598.304688 298.652344 626.136719 308.421875 C 651.121094 317.179688 676.878906 326.261719 700.925781 327.140625 C 718.921875 327.980469 737.074219 327.402344 755.109375 325.640625 C 790.28125 322.003906 820.167969 312.4375 844 297.308594 C 862.753906 285.351562 880.003906 268.765625 896.925781 246.738281 C 910.84375 228.570312 923.214844 208.371094 935.019531 188.660156 C 957.980469 150.785156 981.835938 111.648438 1017.761719 87.617188 L 1016.992188 86.601562 C 980.777344 110.878906 956.925781 150.015625 933.84375 188.09375 C 921.996094 207.640625 909.664062 228 895.867188 245.964844 C 879.109375 267.953125 861.820312 284.378906 843.386719 296.253906 C 819.882812 311.296875 790.15625 320.824219 755.148438 324.421875 C 737.277344 326.140625 719.121094 326.722656 701.128906 325.882812 C 677.246094 324.964844 651.527344 316.042969 626.703125 307.246094 C 598.875 297.472656 570.109375 287.417969 543.222656 288.289062 C 536.722656 288.539062 530.144531 289.152344 523.644531 290.089844 C 461.386719 299.3125 393.992188 341.078125 323.210938 414.085938 C 310.464844 427.296875 298.496094 442.214844 286.769531 456.722656 C 259.5 490.5 231.335938 525.535156 193.125 539.089844 C 182.203125 543.035156 171.117188 544.953125 160.355469 546.789062 C 151.417969 548.339844 142.160156 549.96875 133.347656 552.695312 C 97.289062 563.8125 89.875 587.945312 88.375 595.054688 L 89.636719 595.257812 C 90.808594 588.230469 98.019531 564.664062 133.472656 553.875 Z M 136.886719 559.234375 C 137.050781 559.195312 137.210938 559.152344 137.375 559.113281 C 146.46875 556.832031 156.054688 555.808594 165.273438 554.707031 C 176.851562 553.359375 188.75 551.929688 200.28125 548.34375 C 241.5 535.765625 270.554688 498.777344 298.714844 463.050781 C 309.832031 448.867188 321.359375 434.234375 333.492188 421.351562 C 405.285156 344.808594 469.835938 303.410156 530.472656 294.59375 C 536.808594 293.695312 543.386719 293.082031 549.925781 292.996094 C 576.328125 292.25 604.890625 303.5625 632.476562 314.429688 C 657.21875 324.285156 682.695312 334.300781 706.660156 335.546875 C 724.53125 336.589844 742.769531 336.332031 760.679688 334.777344 C 795.933594 331.464844 825.617188 321.773438 848.960938 306.078125 C 867.308594 293.878906 883.707031 277.335938 900.34375 254.167969 C 912.878906 236.691406 923.953125 217.511719 934.824219 198.898438 C 957.824219 159.113281 981.554688 118.109375 1019.3125 94.480469 L 1018.703125 93.425781 C 980.660156 117.296875 956.769531 158.34375 933.808594 198.289062 C 923.101562 216.863281 911.863281 236.085938 899.488281 253.519531 C 882.851562 276.6875 866.578125 293.027344 848.390625 305.1875 C 825.167969 320.679688 795.648438 330.328125 760.597656 333.761719 C 742.6875 335.316406 724.652344 335.695312 706.738281 334.488281 C 683.097656 333.164062 657.625 323.148438 633.085938 313.414062 C 605.457031 302.382812 576.730469 291.109375 550.167969 291.902344 C 543.628906 291.988281 537.050781 292.601562 530.550781 293.539062 C 469.550781 302.273438 404.878906 343.875 332.800781 420.660156 C 320.667969 433.546875 309.183594 448.339844 297.902344 462.566406 C 269.863281 498.089844 240.929688 534.871094 200.242188 547.492188 C 188.707031 551.074219 176.808594 552.503906 165.394531 553.8125 C 156.175781 554.914062 146.632812 556.101562 137.332031 558.257812 C 137.171875 558.300781 137.007812 558.339844 136.84375 558.382812 C 117.027344 563.351562 94.332031 576.8125 89.558594 599.769531 L 90.816406 599.96875 C 95.144531 577.300781 117.394531 564.121094 136.886719 559.234375 Z M 141.113281 564.390625 C 150.660156 562.515625 160.691406 561.898438 170.355469 561.203125 C 182.417969 560.421875 194.96875 559.519531 207.152344 556.464844 C 250.886719 544.980469 280.714844 506.246094 309.484375 468.8125 C 320.15625 454.914062 331.230469 440.566406 342.878906 427.800781 C 388.941406 377.398438 458.996094 309.066406 537.21875 298.085938 C 543.550781 297.1875 550.132812 296.574219 556.507812 296.527344 C 582.667969 296.183594 610.984375 308.597656 638.167969 320.601562 C 662.832031 331.511719 688.222656 342.585938 711.785156 344.277344 C 729.738281 345.644531 747.851562 345.59375 765.640625 344.238281 C 800.773438 341.128906 830.253906 331.320312 853.515625 315.296875 C 871.539062 302.488281 887.492188 285.539062 903.433594 261.683594 C 914.753906 244.855469 924.855469 226.609375 934.546875 208.8125 C 957.304688 167.359375 980.789062 124.691406 1020.375 101.46875 L 1019.761719 100.410156 C 979.855469 123.714844 956.246094 166.589844 933.53125 208.203125 C 923.839844 226 913.738281 244.246094 902.378906 260.910156 C 886.394531 284.605469 870.605469 301.515625 852.703125 314.121094 C 829.605469 330.101562 800.246094 339.707031 765.480469 342.898438 C 747.730469 344.414062 729.613281 344.46875 711.824219 343.058594 C 688.46875 341.488281 663.03125 330.253906 638.574219 319.464844 C 611.027344 307.378906 582.664062 294.804688 556.34375 295.1875 C 549.804688 295.273438 543.390625 295.847656 536.890625 296.785156 C 458.34375 307.847656 388.007812 376.425781 341.824219 427.03125 C 330.175781 439.792969 319.097656 454.140625 308.304688 468.246094 C 279.65625 505.476562 249.953125 544.007812 206.582031 555.570312 C 194.601562 558.75 182.011719 559.488281 169.949219 560.269531 C 160.285156 560.964844 150.25 561.582031 140.546875 563.496094 C 120.441406 567.328125 95.230469 580.386719 90.171875 604.277344 L 91.429688 604.480469 C 96.570312 580.914062 121.378906 568.304688 141.113281 564.390625 Z M 144.855469 569.667969 C 154.847656 568.199219 165.164062 568.03125 175.15625 567.941406 C 187.867188 567.691406 201.109375 567.476562 214.023438 564.585938 C 260.277344 554.195312 290.710938 513.753906 320.25 474.574219 C 330.636719 460.917969 341.230469 446.691406 352.390625 434.050781 C 402.304688 377.675781 469.273438 311.496094 543.878906 301.25 C 550.214844 300.351562 556.675781 299.941406 563.050781 299.894531 C 588.761719 299.835938 616.878906 313.507812 643.980469 326.570312 C 668.523438 338.375 693.875 350.664062 717.191406 352.761719 C 735.066406 354.496094 753.058594 354.648438 771.011719 353.253906 C 806.183594 350.304688 835.5 340.535156 858.4375 323.90625 C 875.972656 311.21875 891.4375 293.699219 907.015625 269.074219 C 917.15625 253.0625 926.363281 235.382812 935.085938 218.519531 C 957.59375 175.402344 980.792969 130.90625 1022.125 108.453125 L 1021.515625 107.398438 C 979.898438 130.09375 956.578125 174.792969 934.109375 218.074219 C 925.226562 234.976562 916.140625 252.453125 906.039062 268.625 C 890.582031 293.050781 875.121094 310.570312 857.746094 323.214844 C 835.136719 339.765625 805.980469 349.492188 770.96875 352.402344 C 753.179688 353.753906 735.1875 353.601562 717.476562 351.828125 C 694.363281 349.851562 669.007812 337.5625 644.671875 325.878906 C 617.367188 312.695312 589.25 299.023438 563.171875 299 C 556.632812 299.085938 550.175781 299.496094 543.839844 300.394531 C 468.746094 310.765625 401.613281 376.984375 351.578125 433.566406 C 340.417969 446.207031 329.664062 460.472656 319.4375 474.085938 C 290.710938 512.375 260.886719 551.796875 216.539062 562.917969 C 215.726562 563.121094 214.753906 563.367188 213.941406 563.570312 C 201.1875 566.421875 187.949219 566.632812 175.234375 566.886719 C 165.242188 566.972656 154.925781 567.144531 144.773438 568.652344 C 123.613281 571.714844 96.980469 583.917969 91.59375 608.582031 L 92.855469 608.785156 C 98.035156 584.691406 124.019531 572.648438 144.855469 569.667969 Z M 148.597656 574.949219 C 159.035156 573.882812 169.796875 574.121094 180.074219 574.480469 C 193.476562 574.917969 207.371094 575.234375 220.730469 572.746094 C 269.546875 563.613281 300.75 521.425781 330.734375 480.578125 C 340.632812 467.046875 350.941406 453.0625 361.65625 440.707031 C 420.335938 372.460938 490.917969 302.785156 569.675781 303.585938 C 595.140625 303.933594 623.179688 318.664062 650.078125 332.984375 C 674.375 345.886719 699.652344 359.234375 722.722656 361.738281 C 782.679688 368.113281 829.828125 358.535156 863.195312 333.246094 C 896.566406 307.957031 916.476562 267.5625 935.660156 228.390625 C 957.761719 183.648438 980.515625 137.363281 1023.429688 115.722656 L 1022.820312 114.667969 C 979.621094 136.554688 956.707031 182.878906 934.480469 227.820312 C 915.257812 266.832031 895.46875 307.023438 862.222656 332.109375 C 829.136719 357.15625 782.148438 366.691406 722.558594 360.394531 C 699.691406 358.015625 674.621094 344.789062 650.484375 331.847656 C 623.378906 317.402344 595.304688 302.511719 569.511719 302.246094 C 490.226562 301.40625 419.359375 371.324219 360.558594 439.773438 C 349.882812 452.292969 339.578125 466.273438 329.675781 479.808594 C 299.8125 520.453125 268.9375 562.558594 220.445312 571.609375 C 207.246094 574.054688 193.355469 573.738281 179.953125 573.300781 C 169.511719 572.984375 158.75 572.746094 148.3125 573.8125 C 124.390625 576.183594 97.796875 589.242188 92.328125 612.886719 L 93.589844 613.089844 C 99.054688 590.132812 125.203125 577.359375 148.597656 574.949219 Z M 148.597656 574.949219 " clip-rule="nonzero"/></clipPath><linearGradient x1="12.578882" gradientTransform="matrix(1.624382, -0.407327, 0.407391, 1.624637, -4.998968, 221.308183)" xmlns:xlink="http://www.w3.org/1999/xlink" y1="129.899994" x2="589.058645" gradientUnits="userSpaceOnUse" y2="129.899994" xlink:type="simple" xlink:actuate="onLoad" id="linear-pattern-0" xlink:show="other"><stop stop-opacity="1" stop-color="rgb(14.579773%, 96.090698%, 70.303345%)" offset="0"/><stop stop-opacity="1" stop-color="rgb(14.524841%, 95.951843%, 70.388794%)" offset="0.0078125"/><stop stop-opacity="1" stop-color="rgb(14.414978%, 95.674133%, 70.561218%)" offset="0.015625"/><stop stop-opacity="1" stop-color="rgb(14.306641%, 95.397949%, 70.733643%)" offset="0.0234375"/><stop stop-opacity="1" stop-color="rgb(14.196777%, 95.121765%, 70.906067%)" offset="0.03125"/><stop stop-opacity="1" stop-color="rgb(14.086914%, 94.845581%, 71.078491%)" offset="0.0390625"/><stop stop-opacity="1" stop-color="rgb(13.978577%, 94.567871%, 71.250916%)" offset="0.046875"/><stop stop-opacity="1" stop-color="rgb(13.868713%, 94.291687%, 71.42334%)" offset="0.0546875"/><stop stop-opacity="1" stop-color="rgb(13.75885%, 94.015503%, 71.595764%)" offset="0.0625"/><stop stop-opacity="1" stop-color="rgb(13.650513%, 93.739319%, 71.768188%)" offset="0.0703125"/><stop stop-opacity="1" stop-color="rgb(13.540649%, 93.463135%, 71.940613%)" offset="0.078125"/><stop stop-opacity="1" stop-color="rgb(13.432312%, 93.185425%, 72.113037%)" offset="0.0859375"/><stop stop-opacity="1" stop-color="rgb(13.322449%, 92.909241%, 72.285461%)" offset="0.09375"/><stop stop-opacity="1" stop-color="rgb(13.212585%, 92.633057%, 72.457886%)" offset="0.101562"/><stop stop-opacity="1" stop-color="rgb(13.104248%, 92.356873%, 72.63031%)" offset="0.109375"/><stop stop-opacity="1" stop-color="rgb(12.994385%, 92.079163%, 72.802734%)" offset="0.117188"/><stop stop-opacity="1" stop-color="rgb(12.884521%, 91.802979%, 72.975159%)" offset="0.125"/><stop stop-opacity="1" stop-color="rgb(12.776184%, 91.526794%, 73.147583%)" offset="0.132812"/><stop stop-opacity="1" stop-color="rgb(12.666321%, 91.25061%, 73.320007%)" offset="0.140625"/><stop stop-opacity="1" stop-color="rgb(12.556458%, 90.9729%, 73.492432%)" offset="0.148438"/><stop stop-opacity="1" stop-color="rgb(12.44812%, 90.696716%, 73.664856%)" offset="0.15625"/><stop stop-opacity="1" stop-color="rgb(12.338257%, 90.420532%, 73.83728%)" offset="0.164062"/><stop stop-opacity="1" stop-color="rgb(12.229919%, 90.144348%, 74.009705%)" offset="0.171875"/><stop stop-opacity="1" stop-color="rgb(12.120056%, 89.868164%, 74.180603%)" offset="0.179688"/><stop stop-opacity="1" stop-color="rgb(12.010193%, 89.590454%, 74.353027%)" offset="0.1875"/><stop stop-opacity="1" stop-color="rgb(11.901855%, 89.31427%, 74.525452%)" offset="0.195312"/><stop stop-opacity="1" stop-color="rgb(11.791992%, 89.038086%, 74.697876%)" offset="0.203125"/><stop stop-opacity="1" stop-color="rgb(11.682129%, 88.761902%, 74.8703%)" offset="0.210938"/><stop stop-opacity="1" stop-color="rgb(11.573792%, 88.484192%, 75.042725%)" offset="0.21875"/><stop stop-opacity="1" stop-color="rgb(11.463928%, 88.208008%, 75.215149%)" offset="0.226562"/><stop stop-opacity="1" stop-color="rgb(11.355591%, 87.931824%, 75.387573%)" offset="0.234375"/><stop stop-opacity="1" stop-color="rgb(11.245728%, 87.65564%, 75.559998%)" offset="0.242188"/><stop stop-opacity="1" stop-color="rgb(11.135864%, 87.37793%, 75.732422%)" offset="0.25"/><stop stop-opacity="1" stop-color="rgb(11.027527%, 87.101746%, 75.904846%)" offset="0.257812"/><stop stop-opacity="1" stop-color="rgb(10.917664%, 86.825562%, 76.077271%)" offset="0.265625"/><stop stop-opacity="1" stop-color="rgb(10.8078%, 86.549377%, 76.249695%)" offset="0.273438"/><stop stop-opacity="1" stop-color="rgb(10.699463%, 86.273193%, 76.422119%)" offset="0.28125"/><stop stop-opacity="1" stop-color="rgb(10.5896%, 85.995483%, 76.594543%)" offset="0.289062"/><stop stop-opacity="1" stop-color="rgb(10.481262%, 85.719299%, 76.766968%)" offset="0.296875"/><stop stop-opacity="1" stop-color="rgb(10.371399%, 85.443115%, 76.939392%)" offset="0.304688"/><stop stop-opacity="1" stop-color="rgb(10.261536%, 85.166931%, 77.111816%)" offset="0.3125"/><stop stop-opacity="1" stop-color="rgb(10.153198%, 84.889221%, 77.284241%)" offset="0.320312"/><stop stop-opacity="1" stop-color="rgb(10.043335%, 84.613037%, 77.456665%)" offset="0.328125"/><stop stop-opacity="1" stop-color="rgb(9.933472%, 84.336853%, 77.629089%)" offset="0.335938"/><stop stop-opacity="1" stop-color="rgb(9.825134%, 84.060669%, 77.801514%)" offset="0.34375"/><stop stop-opacity="1" stop-color="rgb(9.715271%, 83.784485%, 77.973938%)" offset="0.351562"/><stop stop-opacity="1" stop-color="rgb(9.606934%, 83.506775%, 78.146362%)" offset="0.359375"/><stop stop-opacity="1" stop-color="rgb(9.49707%, 83.230591%, 78.318787%)" offset="0.367188"/><stop stop-opacity="1" stop-color="rgb(9.387207%, 82.954407%, 78.491211%)" offset="0.375"/><stop stop-opacity="1" stop-color="rgb(9.27887%, 82.678223%, 78.663635%)" offset="0.382813"/><stop stop-opacity="1" stop-color="rgb(9.169006%, 82.400513%, 78.83606%)" offset="0.390625"/><stop stop-opacity="1" stop-color="rgb(9.059143%, 82.124329%, 79.008484%)" offset="0.398438"/><stop stop-opacity="1" stop-color="rgb(8.950806%, 81.848145%, 79.180908%)" offset="0.40625"/><stop stop-opacity="1" stop-color="rgb(8.840942%, 81.57196%, 79.353333%)" offset="0.414063"/><stop stop-opacity="1" stop-color="rgb(8.732605%, 81.29425%, 79.524231%)" offset="0.421875"/><stop stop-opacity="1" stop-color="rgb(8.622742%, 81.018066%, 79.696655%)" offset="0.429688"/><stop stop-opacity="1" stop-color="rgb(8.512878%, 80.741882%, 79.86908%)" offset="0.4375"/><stop stop-opacity="1" stop-color="rgb(8.404541%, 80.465698%, 80.041504%)" offset="0.445313"/><stop stop-opacity="1" stop-color="rgb(8.294678%, 80.189514%, 80.213928%)" offset="0.453125"/><stop stop-opacity="1" stop-color="rgb(8.184814%, 79.911804%, 80.386353%)" offset="0.460938"/><stop stop-opacity="1" stop-color="rgb(8.076477%, 79.63562%, 80.558777%)" offset="0.46875"/><stop stop-opacity="1" stop-color="rgb(7.966614%, 79.359436%, 80.731201%)" offset="0.476563"/><stop stop-opacity="1" stop-color="rgb(7.858276%, 79.083252%, 80.903625%)" offset="0.484375"/><stop stop-opacity="1" stop-color="rgb(7.748413%, 78.805542%, 81.07605%)" offset="0.492188"/><stop stop-opacity="1" stop-color="rgb(7.63855%, 78.529358%, 81.248474%)" offset="0.5"/><stop stop-opacity="1" stop-color="rgb(7.530212%, 78.253174%, 81.420898%)" offset="0.507812"/><stop stop-opacity="1" stop-color="rgb(7.420349%, 77.97699%, 81.593323%)" offset="0.515625"/><stop stop-opacity="1" stop-color="rgb(7.310486%, 77.69928%, 81.765747%)" offset="0.523438"/><stop stop-opacity="1" stop-color="rgb(7.202148%, 77.423096%, 81.938171%)" offset="0.53125"/><stop stop-opacity="1" stop-color="rgb(7.092285%, 77.146912%, 82.110596%)" offset="0.539062"/><stop stop-opacity="1" stop-color="rgb(6.983948%, 76.870728%, 82.28302%)" offset="0.546875"/><stop stop-opacity="1" stop-color="rgb(6.874084%, 76.594543%, 82.455444%)" offset="0.554688"/><stop stop-opacity="1" stop-color="rgb(6.764221%, 76.316833%, 82.627869%)" offset="0.5625"/><stop stop-opacity="1" stop-color="rgb(6.655884%, 76.040649%, 82.800293%)" offset="0.570312"/><stop stop-opacity="1" stop-color="rgb(6.546021%, 75.764465%, 82.972717%)" offset="0.578125"/><stop stop-opacity="1" stop-color="rgb(6.436157%, 75.488281%, 83.145142%)" offset="0.585938"/><stop stop-opacity="1" stop-color="rgb(6.32782%, 75.210571%, 83.317566%)" offset="0.59375"/><stop stop-opacity="1" stop-color="rgb(6.217957%, 74.934387%, 83.48999%)" offset="0.601562"/><stop stop-opacity="1" stop-color="rgb(6.109619%, 74.658203%, 83.662415%)" offset="0.609375"/><stop stop-opacity="1" stop-color="rgb(5.999756%, 74.382019%, 83.834839%)" offset="0.617187"/><stop stop-opacity="1" stop-color="rgb(5.889893%, 74.105835%, 84.007263%)" offset="0.625"/><stop stop-opacity="1" stop-color="rgb(5.781555%, 73.828125%, 84.179688%)" offset="0.632812"/><stop stop-opacity="1" stop-color="rgb(5.671692%, 73.551941%, 84.352112%)" offset="0.640625"/><stop stop-opacity="1" stop-color="rgb(5.561829%, 73.275757%, 84.524536%)" offset="0.648438"/><stop stop-opacity="1" stop-color="rgb(5.453491%, 72.999573%, 84.695435%)" offset="0.65625"/><stop stop-opacity="1" stop-color="rgb(5.343628%, 72.721863%, 84.867859%)" offset="0.664062"/><stop stop-opacity="1" stop-color="rgb(5.235291%, 72.445679%, 85.040283%)" offset="0.671875"/><stop stop-opacity="1" stop-color="rgb(5.125427%, 72.169495%, 85.212708%)" offset="0.679688"/><stop stop-opacity="1" stop-color="rgb(5.015564%, 71.893311%, 85.385132%)" offset="0.6875"/><stop stop-opacity="1" stop-color="rgb(4.907227%, 71.615601%, 85.557556%)" offset="0.695312"/><stop stop-opacity="1" stop-color="rgb(4.797363%, 71.339417%, 85.72998%)" offset="0.703125"/><stop stop-opacity="1" stop-color="rgb(4.6875%, 71.063232%, 85.902405%)" offset="0.710938"/><stop stop-opacity="1" stop-color="rgb(4.579163%, 70.787048%, 86.074829%)" offset="0.71875"/><stop stop-opacity="1" stop-color="rgb(4.469299%, 70.510864%, 86.247253%)" offset="0.726562"/><stop stop-opacity="1" stop-color="rgb(4.360962%, 70.233154%, 86.419678%)" offset="0.734375"/><stop stop-opacity="1" stop-color="rgb(4.251099%, 69.95697%, 86.592102%)" offset="0.742187"/><stop stop-opacity="1" stop-color="rgb(4.141235%, 69.680786%, 86.764526%)" offset="0.75"/><stop stop-opacity="1" stop-color="rgb(4.032898%, 69.404602%, 86.936951%)" offset="0.757812"/><stop stop-opacity="1" stop-color="rgb(3.923035%, 69.126892%, 87.109375%)" offset="0.765625"/><stop stop-opacity="1" stop-color="rgb(3.813171%, 68.850708%, 87.281799%)" offset="0.773438"/><stop stop-opacity="1" stop-color="rgb(3.704834%, 68.574524%, 87.454224%)" offset="0.78125"/><stop stop-opacity="1" stop-color="rgb(3.594971%, 68.29834%, 87.626648%)" offset="0.789062"/><stop stop-opacity="1" stop-color="rgb(3.486633%, 68.02063%, 87.799072%)" offset="0.796875"/><stop stop-opacity="1" stop-color="rgb(3.37677%, 67.744446%, 87.971497%)" offset="0.804688"/><stop stop-opacity="1" stop-color="rgb(3.266907%, 67.468262%, 88.143921%)" offset="0.8125"/><stop stop-opacity="1" stop-color="rgb(3.158569%, 67.192078%, 88.316345%)" offset="0.820312"/><stop stop-opacity="1" stop-color="rgb(3.048706%, 66.915894%, 88.48877%)" offset="0.828125"/><stop stop-opacity="1" stop-color="rgb(2.938843%, 66.638184%, 88.661194%)" offset="0.835938"/><stop stop-opacity="1" stop-color="rgb(2.830505%, 66.362%, 88.833618%)" offset="0.84375"/><stop stop-opacity="1" stop-color="rgb(2.720642%, 66.085815%, 89.006042%)" offset="0.851562"/><stop stop-opacity="1" stop-color="rgb(2.612305%, 65.809631%, 89.178467%)" offset="0.859375"/><stop stop-opacity="1" stop-color="rgb(2.502441%, 65.531921%, 89.350891%)" offset="0.867187"/><stop stop-opacity="1" stop-color="rgb(2.392578%, 65.255737%, 89.523315%)" offset="0.875"/><stop stop-opacity="1" stop-color="rgb(2.284241%, 64.979553%, 89.69574%)" offset="0.882812"/><stop stop-opacity="1" stop-color="rgb(2.174377%, 64.703369%, 89.868164%)" offset="0.890625"/><stop stop-opacity="1" stop-color="rgb(2.064514%, 64.425659%, 90.039062%)" offset="0.898438"/><stop stop-opacity="1" stop-color="rgb(1.956177%, 64.149475%, 90.211487%)" offset="0.90625"/><stop stop-opacity="1" stop-color="rgb(1.846313%, 63.873291%, 90.383911%)" offset="0.914062"/><stop stop-opacity="1" stop-color="rgb(1.737976%, 63.597107%, 90.556335%)" offset="0.921875"/><stop stop-opacity="1" stop-color="rgb(1.628113%, 63.320923%, 90.72876%)" offset="0.929688"/><stop stop-opacity="1" stop-color="rgb(1.51825%, 63.043213%, 90.901184%)" offset="0.9375"/><stop stop-opacity="1" stop-color="rgb(1.409912%, 62.767029%, 91.073608%)" offset="0.945312"/><stop stop-opacity="1" stop-color="rgb(1.300049%, 62.490845%, 91.246033%)" offset="0.953125"/><stop stop-opacity="1" stop-color="rgb(1.190186%, 62.214661%, 91.418457%)" offset="0.960938"/><stop stop-opacity="1" stop-color="rgb(1.081848%, 61.936951%, 91.590881%)" offset="0.96875"/><stop stop-opacity="1" stop-color="rgb(0.971985%, 61.660767%, 91.763306%)" offset="0.976562"/><stop stop-opacity="1" stop-color="rgb(0.862122%, 61.384583%, 91.93573%)" offset="0.984375"/><stop stop-opacity="1" stop-color="rgb(0.753784%, 61.108398%, 92.108154%)" offset="0.992188"/><stop stop-opacity="1" stop-color="rgb(0.643921%, 60.832214%, 92.280579%)" offset="1"/></linearGradient><clipPath id="clip-4"><rect x="0" width="957" y="0" height="452"/></clipPath><mask id="mask-1"><g filter="url(#filter-remove-color)"><rect x="-288" width="3456" fill="rgb(0%, 0%, 0%)" y="-161.999993" height="1943.999916" fill-opacity="0.6471"/></g></mask><clipPath id="clip-5"><path d="M 0 104 L 1126 104 L 1126 493 L 0 493 Z M 0 104 " clip-rule="nonzero"/></clipPath><clipPath id="clip-6"><path d="M -67.195312 2.703125 L 1176.308594 337.355469 L 1068.527344 737.855469 L -174.980469 403.203125 Z M -67.195312 2.703125 " clip-rule="nonzero"/></clipPath><clipPath id="clip-7"><path d="M -174.921875 403 L 1068.582031 737.652344 L 1176.363281 337.152344 L -67.140625 2.5 Z M -174.921875 403 " clip-rule="nonzero"/></clipPath><clipPath id="clip-8"><path d="M 776.074219 379.699219 C 715.273438 363.335938 576.449219 398.640625 499.621094 418.328125 C 482.992188 422.582031 468.726562 426.164062 458.261719 428.582031 C 397.425781 442.324219 366.492188 421.125 327.027344 394.355469 C 291.246094 370.109375 250.667969 342.605469 176.90625 333.882812 C 122.617188 327.34375 96.25 353.199219 70.972656 378.253906 C 52.722656 395.816406 35.765625 412.636719 9.261719 417.941406 C -60.71875 431.621094 -85.316406 393.363281 -109.167969 356.394531 C -120.996094 337.9375 -132.226562 320.511719 -148.773438 309.078125 L -149.769531 310.335938 C -133.625 321.664062 -122.394531 339.085938 -110.71875 357.285156 C -86.511719 394.566406 -61.414062 433.398438 9.488281 419.527344 C 36.398438 414.335938 53.671875 397.160156 71.972656 379.394531 C 97.144531 354.746094 123.195312 329.246094 176.671875 335.5625 C 250.027344 344.175781 290.398438 371.625 325.980469 395.820312 C 364.128906 421.796875 396.988281 443.949219 458.488281 430.171875 C 468.898438 427.953125 483.21875 424.171875 499.847656 419.917969 C 582.011719 399.042969 734.636719 360.257812 786.75 385.410156 C 797.941406 390.824219 809.597656 396.140625 821.804688 401.828125 C 877.28125 427.449219 940.359375 456.425781 977.222656 500.164062 C 981.023438 504.679688 984.621094 509.140625 988.421875 513.652344 C 1020.425781 551.941406 1053.171875 591.519531 1100.144531 604.164062 C 1100.753906 604.328125 1101.367188 604.492188 1102.179688 604.710938 L 1102.617188 603.082031 C 1102.007812 602.917969 1101.398438 602.753906 1100.785156 602.589844 C 1054.21875 590.058594 1021.621094 550.738281 990.023438 512.558594 C 986.222656 508.042969 982.625 503.585938 978.824219 499.070312 C 941.613281 455.015625 878.535156 426.039062 822.910156 400.160156 C 810.699219 394.472656 799.046875 389.15625 787.855469 383.742188 C 784.101562 382.296875 780.34375 380.851562 776.074219 379.699219 Z M 752.4375 375.957031 C 759.09375 377.96875 765.953125 380.03125 773.015625 382.152344 C 844.660156 403.613281 925.75 428.054688 979.058594 486.042969 C 987.679688 495.34375 996.226562 505.71875 1004.476562 515.574219 C 1033.03125 549.660156 1062.535156 585.09375 1103.8125 596.203125 C 1104.015625 596.257812 1104.222656 596.3125 1104.425781 596.367188 L 1103.984375 597.996094 C 1103.78125 597.941406 1103.578125 597.886719 1103.375 597.832031 C 1061.484375 586.558594 1031.984375 551.125 1003.28125 516.78125 C 995.03125 506.921875 986.425781 496.753906 977.863281 487.246094 C 924.90625 429.574219 843.816406 405.132812 772.578125 383.777344 C 765.515625 381.660156 758.65625 379.59375 752 377.585938 C 750.78125 377.257812 749.765625 376.984375 748.542969 376.65625 C 677.574219 357.554688 510.367188 388.929688 446.550781 400.773438 L 445.832031 401.019531 C 386.78125 412.183594 351.40625 393.71875 310.71875 372.292969 C 274.234375 353.09375 233.140625 331.558594 165.316406 325.089844 C 116 320.328125 90.589844 344.253906 65.800781 367.476562 C 47.664062 384.636719 30.464844 400.734375 4.527344 405.539062 C -62.867188 417.730469 -86.527344 378.414062 -109.386719 340.1875 C -120.195312 322.003906 -130.613281 304.800781 -145.332031 293.855469 L -144.339844 292.597656 C -129.269531 303.851562 -119.054688 321.003906 -108.042969 339.242188 C -85.480469 376.953125 -62.117188 415.75 4.410156 403.542969 C 30.035156 399.09375 47.03125 382.9375 65.113281 365.984375 C 89.957031 342.558594 115.679688 318.277344 165.808594 323.257812 C 233.835938 329.78125 275.28125 351.628906 311.824219 370.625 C 352.304688 391.996094 387.273438 410.351562 445.863281 399.28125 L 446.585938 399.039062 C 510.398438 387.191406 677.863281 355.671875 749.242188 374.878906 C 750.257812 375.152344 751.476562 375.480469 752.4375 375.957031 Z M 979.753906 472.917969 C 991.746094 485.089844 1002.835938 498.984375 1013.886719 512.214844 C 1040.625 544.941406 1068.164062 578.753906 1106.746094 589.355469 L 1106.308594 590.984375 C 1067.117188 580.21875 1039.375 546.351562 1012.488281 513.367188 C 1001.695312 499.988281 990.34375 486.242188 978.558594 474.125 C 907.175781 401.453125 807.65625 384.707031 719.800781 370.011719 L 717.101562 369.503906 C 641.21875 356.5 495.984375 362.144531 433.03125 371.605469 C 376.425781 380.15625 338.886719 365.691406 295.609375 349.027344 C 258.476562 334.667969 216.363281 318.535156 154.066406 314.207031 C 108.859375 311.207031 84.089844 333.558594 59.945312 355.210938 C 41.820312 371.5 24.785156 386.988281 -0.117188 391.195312 C -64.785156 402.160156 -87.988281 360.347656 -108.519531 323.183594 C -118.253906 305.070312 -127.65625 288.140625 -140.953125 277.578125 L -139.957031 276.320312 C -126.460938 286.933594 -116.910156 304.125 -106.96875 322.292969 C -85.699219 360.746094 -63.679688 400.492188 -0.140625 389.664062 C 24.097656 385.492188 41.078125 370.207031 59.148438 354.121094 C 83.347656 332.269531 108.632812 309.617188 154.453125 312.78125 C 216.953125 317.164062 259.265625 333.351562 296.398438 347.710938 C 339.472656 364.320312 376.808594 378.734375 432.953125 370.277344 C 495.90625 360.816406 641.34375 355.226562 717.429688 368.28125 L 720.128906 368.789062 C 754.355469 374.507812 790.464844 380.519531 825.851562 390.039062 C 881.625 404.832031 935.910156 428.386719 979.753906 472.917969 Z M 980.453125 459.796875 C 994.8125 473.695312 1007.945312 490.542969 1020.628906 506.609375 C 1047.09375 540.355469 1072.113281 572.179688 1108.960938 582.75 L 1108.523438 584.378906 C 1091.699219 579.632812 1075.785156 569.894531 1059.664062 554.429688 C 1045.25 540.730469 1032.117188 523.886719 1019.488281 507.613281 C 1006.800781 491.542969 993.820312 474.957031 979.460938 461.054688 C 896.210938 380.609375 791.609375 368.171875 682.609375 361.53125 C 653.828125 359.894531 620.84375 356.035156 586.125 352.148438 C 524.949219 345.285156 461.679688 338.078125 420.785156 342.5625 C 367.292969 348.460938 327.679688 338.453125 281.757812 326.75 C 243.824219 316.980469 200.550781 305.988281 143.320312 303.894531 C 102.277344 302.449219 78.144531 323.230469 54.640625 343.308594 C 36.386719 358.472656 19.367188 373.09375 -4.355469 376.964844 C -66.035156 386.550781 -87.839844 343.585938 -107.078125 305.679688 C -116.058594 287.988281 -124.644531 271.277344 -136.3125 261.152344 L -135.320312 259.894531 C -123.246094 270.125 -114.710938 287.042969 -105.53125 304.785156 C -86.386719 342.234375 -64.878906 384.679688 -4.324219 375.226562 C 18.9375 371.449219 35.902344 357.03125 53.804688 341.558594 C 77.363281 321.277344 102.007812 300.195312 143.460938 301.753906 C 200.894531 303.898438 244.171875 314.890625 282.308594 324.714844 C 328.023438 336.363281 367.378906 346.519531 420.667969 340.566406 C 461.5625 336.082031 525.035156 343.34375 586.417969 350.261719 C 621.136719 354.148438 654.117188 358.007812 682.898438 359.644531 C 736.125 362.839844 788.355469 367.292969 837.566406 380.539062 C 889.109375 394.847656 937.523438 418.347656 980.453125 459.796875 Z M 980.945312 446.617188 C 997.527344 461.988281 1011.996094 481.15625 1025.964844 499.753906 C 1051.359375 533.429688 1075.25 565.386719 1110.878906 575.628906 L 1110.4375 577.257812 C 1074.257812 566.648438 1050.160156 534.632812 1024.617188 500.703125 C 1010.648438 482.105469 996.382812 462.992188 979.75 447.824219 C 878.855469 354.335938 755.257812 350.09375 647.507812 353.390625 C 602.425781 354.789062 557.484375 342.695312 513.914062 331.1875 C 475.074219 320.734375 438.414062 311.085938 407.777344 313.097656 C 358.417969 316.613281 315.507812 310.742188 270.050781 304.617188 C 228.417969 298.867188 185.308594 292.9375 131.613281 293.109375 C 94.988281 293.070312 71.703125 312.332031 49.097656 330.6875 C 30.894531 345.648438 13.632812 359.546875 -9.109375 363.027344 C -67.855469 371.4375 -88.207031 327.121094 -106.304688 288.210938 C -114.265625 270.796875 -121.890625 254.5625 -132.191406 245.023438 L -130.996094 243.820312 C -120.492188 253.410156 -112.976562 270.050781 -104.808594 287.523438 C -87.011719 325.917969 -66.699219 369.570312 -9.28125 361.238281 C 13.148438 358.109375 30.207031 344.152344 48.152344 329.34375 C 71.066406 310.636719 94.554688 291.425781 131.644531 291.371094 C 185.542969 291.257812 228.652344 297.183594 270.285156 302.933594 C 315.484375 309.207031 358.394531 315.082031 407.753906 311.5625 C 438.648438 309.402344 475.457031 319.308594 514.351562 329.558594 C 557.664062 341.214844 602.660156 353.105469 647.28125 351.804688 C 707.546875 349.910156 772.824219 350.457031 836.269531 367.535156 C 886.699219 381.105469 936.074219 405.085938 980.945312 446.617188 Z M 981.4375 433.441406 C 1000.09375 450.023438 1015.492188 471.40625 1030.390625 492.21875 C 1054.808594 526.28125 1078.035156 558.28125 1112.683594 568.914062 L 1112.246094 570.542969 C 1076.988281 559.746094 1053.816406 527.542969 1028.992188 493.367188 C 1014.035156 472.761719 998.636719 451.378906 980.1875 434.847656 C 927.800781 388.019531 868.804688 359.269531 799.757812 346.796875 C 734.226562 335.050781 668.242188 339.550781 612.554688 345.511719 C 560.910156 351.035156 518.378906 329.988281 480.804688 311.585938 C 451.335938 297.105469 423.4375 283.269531 395.070312 284.148438 C 355.96875 285.1875 318.082031 284.15625 278.054688 282.984375 C 228.730469 281.496094 177.878906 280.027344 120.257812 282.632812 C 88.050781 284.003906 65.460938 301.488281 43.902344 318.382812 C 25.460938 332.621094 8.105469 346.058594 -13.8125 348.890625 C -69.570312 355.921875 -89.503906 308.445312 -105.417969 270.339844 C -112.472656 253.605469 -119.082031 237.640625 -127.8125 228.746094 L -126.667969 227.746094 C -117.792969 236.898438 -111.183594 252.859375 -103.980469 269.855469 C -87.324219 309.25 -68.671875 354.199219 -13.78125 347.152344 C 7.675781 344.417969 25.03125 330.976562 43.214844 316.886719 C 65.234375 299.902344 87.878906 282.210938 120.546875 280.746094 C 178.167969 278.144531 229.019531 279.609375 278.34375 281.101562 C 318.371094 282.273438 356.203125 283.507812 395.359375 282.261719 C 423.929688 281.441406 452.03125 295.332031 481.910156 309.917969 C 519.277344 328.265625 561.605469 349.257812 612.84375 343.628906 C 668.738281 337.722656 734.773438 333.019531 800.511719 344.816406 C 811.765625 346.753906 822.652344 349.25 833.226562 352.09375 C 888.429688 367.386719 937.296875 394.066406 981.4375 433.441406 Z M 982.136719 420.316406 C 1002.507812 437.800781 1018.785156 461.601562 1034.464844 484.367188 C 1058.3125 518.933594 1080.765625 551.378906 1114.953125 562.105469 L 1114.570312 563.53125 C 1079.976562 552.695312 1057.171875 519.9375 1033.378906 485.167969 C 1017.699219 462.398438 1001.367188 438.804688 981.195312 421.375 C 850.96875 308.863281 710.535156 314.492188 578.117188 337.335938 C 521.851562 347.070312 486.515625 317.921875 455.457031 292.324219 C 432.25 273.207031 410.507812 255.136719 382.929688 254.695312 C 301.066406 253.394531 202.867188 262.535156 109.621094 271.914062 C 81.832031 274.691406 60.402344 290.308594 39.742188 305.476562 C 20.949219 319.402344 3.089844 332.273438 -18.050781 334.65625 C -71.28125 340.40625 -89.503906 291.425781 -104.167969 251.910156 C -110.355469 235.191406 -115.8125 220.628906 -122.96875 212.375 L -121.828125 211.375 C -114.523438 219.886719 -109.0625 234.445312 -102.726562 251.425781 C -88.105469 290.273438 -70.179688 338.738281 -18.074219 333.121094 C 2.808594 330.886719 20.261719 317.910156 39 304.1875 C 59.914062 288.867188 81.402344 273.050781 109.652344 270.179688 C 203.101562 260.851562 301.097656 251.65625 383.164062 253.011719 C 411.207031 253.359375 433.300781 271.742188 456.707031 290.917969 C 487.5625 316.457031 522.546875 345.292969 578.148438 335.597656 C 659.78125 321.566406 744.261719 313.96875 827.839844 336.460938 C 879.585938 350.824219 931.734375 376.640625 982.136719 420.316406 Z M 982.425781 407.085938 C 1004.519531 425.46875 1021.375 451.171875 1037.984375 476.152344 C 1061.261719 511.21875 1083.292969 544.421875 1116.816406 555.191406 L 1116.429688 556.613281 C 1082.300781 545.683594 1060.117188 512.21875 1036.695312 476.894531 C 1020.230469 452.171875 1003.378906 426.46875 981.488281 408.140625 C 833.988281 284.4375 683.417969 296.941406 542.8125 329.144531 C 482.585938 343.046875 455.464844 306.074219 431.53125 273.449219 C 413.980469 249.523438 397.378906 226.945312 369.925781 225.230469 C 310.734375 221.519531 228.515625 236.921875 155.933594 250.558594 C 135.480469 254.433594 116.207031 257.976562 98.171875 260.980469 C 75.113281 264.8125 55.246094 278.664062 35.949219 292.019531 C 16.289062 305.929688 -2.382812 318.582031 -22.953125 320.464844 C -73.605469 324.722656 -90.933594 271.621094 -103.621094 232.855469 C -108.75 217.074219 -113.152344 203.453125 -118.792969 196.042969 L -117.445312 195.097656 C -111.660156 202.765625 -107.050781 216.441406 -101.976562 232.425781 C -88.660156 272.886719 -72.296875 323.113281 -22.976562 318.929688 C -2.664062 317.195312 15.597656 304.4375 35.152344 290.933594 C 54.449219 277.578125 74.574219 263.574219 98.09375 259.648438 C 116.128906 256.648438 135.457031 252.902344 155.855469 249.226562 C 228.640625 235.648438 311.0625 220.296875 370.253906 224.007812 C 398.371094 225.683594 415.273438 248.78125 432.972656 272.964844 C 457.703125 306.675781 483.433594 341.53125 542.679688 328.015625 C 632.140625 307.578125 725.800781 295.035156 819.957031 320.375 C 874.101562 334.730469 928.328125 361.757812 982.425781 407.085938 Z M 983.121094 393.960938 C 1006.734375 413.191406 1024.371094 440.847656 1041.355469 467.675781 C 1064.210938 503.5 1085.671875 537.207031 1118.933594 548.121094 L 1118.550781 549.546875 C 1084.675781 538.46875 1063.121094 504.300781 1040.066406 468.417969 C 1023.023438 441.796875 1005.59375 414.191406 982.183594 395.019531 C 908.328125 334.777344 831.179688 301.359375 745.816406 292.785156 C 676.769531 285.988281 603.359375 294.597656 508.320312 321.171875 C 444.449219 338.894531 426.417969 296.511719 409.070312 255.621094 C 396.824219 226.578125 385.210938 199.230469 357.476562 196.132812 C 302.003906 189.933594 210.402344 215.902344 136.972656 236.726562 C 118.796875 241.871094 101.800781 246.679688 87.019531 250.558594 C 68.746094 255.242188 50.960938 267.039062 33.746094 278.335938 C 12.605469 292.066406 -7.042969 305.105469 -27.652344 306.324219 C -75.980469 309.246094 -91.527344 253.566406 -103.054688 212.933594 C -107.035156 198.554688 -110.492188 186.277344 -114.613281 179.710938 L -113.324219 178.96875 C -109.054688 185.789062 -105.652344 198.269531 -101.46875 212.707031 C -90.238281 252.824219 -74.675781 307.636719 -27.730469 304.992188 C -7.785156 303.816406 12.0625 290.828125 32.746094 277.191406 C 49.960938 265.898438 67.949219 254.15625 86.476562 249.320312 C 101.261719 245.445312 118.257812 240.636719 136.433594 235.492188 C 210.121094 214.515625 301.722656 188.546875 357.601562 194.855469 C 385.945312 198.121094 397.855469 225.980469 410.453125 255.339844 C 427.503906 295.710938 445.296875 337.375 507.78125 319.933594 C 603.226562 293.46875 676.691406 284.65625 745.941406 291.511719 C 768.6875 293.703125 790.9375 297.730469 812.699219 303.585938 C 872.6875 319.730469 928.953125 349.707031 983.121094 393.960938 Z M 983.816406 380.839844 C 1008.949219 400.914062 1027.164062 430.472656 1044.726562 459.199219 C 1066.957031 495.730469 1088.195312 530.25 1121.203125 541.3125 L 1120.820312 542.738281 C 1087.257812 531.304688 1066.070312 496.582031 1043.4375 459.945312 C 1026.019531 431.472656 1007.859375 401.710938 982.878906 381.894531 C 901.898438 317.335938 818.242188 282.164062 727.492188 274.980469 C 653.628906 269.066406 572.949219 281.175781 473.421875 313.089844 C 450.964844 320.355469 433.808594 320.101562 420.613281 312.40625 C 398.925781 299.804688 392.488281 268.613281 386.441406 238.402344 C 379.351562 203.980469 372.835938 171.460938 344.875 166.773438 C 287.9375 157.125 169.042969 203.460938 97.890625 231.226562 C 89.867188 234.304688 82.300781 237.289062 75.769531 239.675781 C 62.65625 244.65625 48.753906 253.351562 34.027344 262.699219 C 11.703125 276.765625 -11.390625 291.28125 -32.296875 291.980469 C -78.914062 293.402344 -92.925781 232.023438 -102.3125 191.53125 C -105.160156 179.421875 -107.574219 168.949219 -110.179688 163.230469 L -108.683594 162.542969 C -105.878906 168.316406 -103.515625 178.988281 -100.667969 191.101562 C -91.378906 231.132812 -77.347656 291.640625 -32.117188 290.503906 C -11.671875 289.894531 11.421875 275.382812 33.488281 261.464844 C 48.214844 252.117188 62.113281 243.421875 75.433594 238.496094 C 82.019531 235.902344 89.527344 233.125 97.554688 230.046875 C 168.707031 202.28125 288.0625 155.847656 345.203125 165.554688 C 346.480469 165.679688 347.699219 166.007812 348.917969 166.335938 C 374.746094 173.285156 381.273438 204.9375 387.976562 238.378906 C 394.128906 268.183594 400.417969 299.113281 421.550781 311.347656 C 434.191406 318.675781 451.148438 318.875 473.085938 311.90625 C 572.871094 279.847656 653.753906 267.792969 727.820312 273.761719 C 754.09375 275.8125 779.707031 280.304688 804.921875 287.089844 C 866.796875 303.523438 926.003906 334.730469 983.816406 380.839844 Z M 364.871094 222.125 C 366.199219 256.085938 367.609375 291.375 387.191406 304.5 C 398.648438 312.167969 415.050781 312 437.726562 303.917969 C 543.238281 265.980469 629.539062 250.800781 709.089844 255.84375 C 805.527344 262.160156 895.597656 298.617188 984.257812 367.863281 C 1010.957031 388.578125 1029.492188 420.1875 1047.433594 450.765625 C 1069.441406 488.109375 1090.058594 523.332031 1122.953125 534.804688 L 1122.367188 536.171875 C 1089.066406 524.59375 1068.097656 489.054688 1046.144531 451.507812 C 1028.203125 420.933594 1009.613281 389.527344 983.316406 368.921875 C 895.007812 299.988281 805.199219 263.378906 708.910156 257.324219 C 629.617188 252.132812 543.519531 267.363281 438.210938 305.359375 C 415.019531 313.738281 398.210938 313.796875 386.402344 305.816406 C 366.261719 292.324219 364.761719 256.570312 363.339844 222.148438 C 361.753906 182.664062 360.230469 145.375 333.183594 138.097656 C 332.777344 137.988281 332.371094 137.878906 331.964844 137.769531 C 307.34375 132.015625 260.515625 142.324219 196.613281 167.460938 C 147.582031 186.777344 94.910156 212.316406 64.359375 229.40625 C 57.703125 233.066406 50.054688 237.992188 41.890625 243.214844 C 17.1875 258.824219 -13.816406 278.410156 -37.109375 278.25 C -82.308594 277.652344 -94.765625 206.4375 -101.628906 167.933594 C -103.25 158.550781 -104.546875 151.21875 -106 146.898438 L -104.5625 146.414062 C -103.164062 150.9375 -101.863281 158.269531 -100.246094 167.648438 C -93.621094 205.4375 -81.203125 275.984375 -37.023438 276.308594 C -14.191406 276.5625 16.554688 257.125 41.050781 241.460938 C 49.21875 236.238281 56.867188 231.316406 63.726562 227.707031 C 114.503906 199.476562 272.882812 122.304688 332.253906 135.882812 C 332.660156 135.992188 333.066406 136.101562 333.472656 136.210938 C 361.683594 144.023438 363.417969 183.765625 364.871094 222.125 Z M 319.949219 107.042969 C 349.625 115.902344 345.671875 162.1875 341.753906 206.738281 C 338.460938 244.910156 335.039062 284.355469 353.386719 298.023438 C 363.773438 305.617188 379.878906 304.933594 403.03125 295.890625 C 514.265625 252.074219 605.785156 233.71875 690.765625 238.039062 C 792.738281 243.226562 888.910156 281.328125 984.953125 354.742188 C 1012.96875 376.246094 1032.082031 409.757812 1050.398438 442.179688 C 1071.984375 480.28125 1092.382812 516.320312 1125.019531 527.941406 L 1124.691406 529.160156 C 1091.441406 517.375 1070.898438 481.082031 1049.164062 442.71875 C 1030.792969 410.5 1011.882812 377.046875 984.015625 355.800781 C 888.324219 282.695312 792.355469 244.652344 690.640625 239.316406 C 605.863281 235.046875 514.550781 253.457031 403.570312 297.125 C 379.902344 306.46875 363.1875 306.988281 352.449219 299.078125 C 333.398438 284.789062 336.636719 246.820312 340.273438 206.558594 C 344.03125 162.621094 347.964844 117.203125 319.566406 108.46875 C 289.136719 99.1875 220.996094 127.109375 183.183594 144.425781 C 125.234375 170.945312 73.121094 202.523438 53.519531 218.632812 C 34.75 234.089844 -13.121094 265.285156 -41.550781 263.960938 C -87.585938 261.609375 -97.015625 172.664062 -100.503906 139.433594 C -100.847656 135.847656 -101.097656 132.726562 -101.417969 130.675781 L -99.832031 130.449219 C -99.5625 132.703125 -99.257812 135.621094 -98.914062 139.207031 C -95.375 172.234375 -86.078125 260.054688 -41.519531 262.226562 C -15.949219 263.652344 28.773438 236.847656 52.371094 217.230469 C 93.800781 183.214844 264.082031 91.789062 318.785156 106.511719 C 319.136719 106.824219 319.542969 106.933594 319.949219 107.042969 Z M 319.949219 107.042969 " clip-rule="nonzero"/></clipPath><linearGradient x1="42.306085" gradientTransform="matrix(2.033535, 0.547263, 0.547566, -2.034662, -183.896977, 432.29192)" xmlns:xlink="http://www.w3.org/1999/xlink" y1="117.318001" x2="607.688229" gradientUnits="userSpaceOnUse" y2="117.318001" xlink:type="simple" xlink:actuate="onLoad" id="linear-pattern-1" xlink:show="other"><stop stop-opacity="1" stop-color="rgb(13.002014%, 92.405701%, 68.60199%)" offset="0"/><stop stop-opacity="1" stop-color="rgb(12.901306%, 92.167664%, 68.539429%)" offset="0.00390625"/><stop stop-opacity="1" stop-color="rgb(12.802124%, 91.931152%, 68.476868%)" offset="0.0078125"/><stop stop-opacity="1" stop-color="rgb(12.701416%, 91.693115%, 68.412781%)" offset="0.0117188"/><stop stop-opacity="1" stop-color="rgb(12.602234%, 91.456604%, 68.35022%)" offset="0.015625"/><stop stop-opacity="1" stop-color="rgb(12.501526%, 91.218567%, 68.286133%)" offset="0.0195313"/><stop stop-opacity="1" stop-color="rgb(12.400818%, 90.982056%, 68.223572%)" offset="0.0234375"/><stop stop-opacity="1" stop-color="rgb(12.30011%, 90.744019%, 68.159485%)" offset="0.0273437"/><stop stop-opacity="1" stop-color="rgb(12.200928%, 90.505981%, 68.096924%)" offset="0.03125"/><stop stop-opacity="1" stop-color="rgb(12.10022%, 90.267944%, 68.032837%)" offset="0.0351562"/><stop stop-opacity="1" stop-color="rgb(12.001038%, 90.031433%, 67.970276%)" offset="0.0390625"/><stop stop-opacity="1" stop-color="rgb(11.90033%, 89.793396%, 67.906189%)" offset="0.0429687"/><stop stop-opacity="1" stop-color="rgb(11.799622%, 89.556885%, 67.843628%)" offset="0.046875"/><stop stop-opacity="1" stop-color="rgb(11.698914%, 89.318848%, 67.779541%)" offset="0.0507812"/><stop stop-opacity="1" stop-color="rgb(11.599731%, 89.082336%, 67.71698%)" offset="0.0546875"/><stop stop-opacity="1" stop-color="rgb(11.499023%, 88.844299%, 67.654419%)" offset="0.0585937"/><stop stop-opacity="1" stop-color="rgb(11.399841%, 88.607788%, 67.591858%)" offset="0.0625"/><stop stop-opacity="1" stop-color="rgb(11.299133%, 88.369751%, 67.527771%)" offset="0.0664063"/><stop stop-opacity="1" stop-color="rgb(11.198425%, 88.13324%, 67.46521%)" offset="0.0703125"/><stop stop-opacity="1" stop-color="rgb(11.097717%, 87.895203%, 67.401123%)" offset="0.0742187"/><stop stop-opacity="1" stop-color="rgb(10.998535%, 87.658691%, 67.338562%)" offset="0.078125"/><stop stop-opacity="1" stop-color="rgb(10.897827%, 87.420654%, 67.274475%)" offset="0.0820312"/><stop stop-opacity="1" stop-color="rgb(10.798645%, 87.182617%, 67.211914%)" offset="0.0859375"/><stop stop-opacity="1" stop-color="rgb(10.697937%, 86.94458%, 67.147827%)" offset="0.0898437"/><stop stop-opacity="1" stop-color="rgb(10.597229%, 86.708069%, 67.085266%)" offset="0.09375"/><stop stop-opacity="1" stop-color="rgb(10.496521%, 86.470032%, 67.021179%)" offset="0.0976562"/><stop stop-opacity="1" stop-color="rgb(10.397339%, 86.233521%, 66.958618%)" offset="0.101562"/><stop stop-opacity="1" stop-color="rgb(10.296631%, 85.995483%, 66.894531%)" offset="0.105469"/><stop stop-opacity="1" stop-color="rgb(10.197449%, 85.758972%, 66.83197%)" offset="0.109375"/><stop stop-opacity="1" stop-color="rgb(10.096741%, 85.520935%, 66.769409%)" offset="0.113281"/><stop stop-opacity="1" stop-color="rgb(9.996033%, 85.284424%, 66.706848%)" offset="0.117187"/><stop stop-opacity="1" stop-color="rgb(9.895325%, 85.046387%, 66.642761%)" offset="0.121094"/><stop stop-opacity="1" stop-color="rgb(9.796143%, 84.809875%, 66.5802%)" offset="0.125"/><stop stop-opacity="1" stop-color="rgb(9.695435%, 84.571838%, 66.516113%)" offset="0.128906"/><stop stop-opacity="1" stop-color="rgb(9.596252%, 84.333801%, 66.453552%)" offset="0.132812"/><stop stop-opacity="1" stop-color="rgb(9.495544%, 84.095764%, 66.389465%)" offset="0.136719"/><stop stop-opacity="1" stop-color="rgb(9.394836%, 83.859253%, 66.326904%)" offset="0.140625"/><stop stop-opacity="1" stop-color="rgb(9.294128%, 83.621216%, 66.262817%)" offset="0.144531"/><stop stop-opacity="1" stop-color="rgb(9.194946%, 83.384705%, 66.200256%)" offset="0.148438"/><stop stop-opacity="1" stop-color="rgb(9.094238%, 83.146667%, 66.136169%)" offset="0.152344"/><stop stop-opacity="1" stop-color="rgb(8.995056%, 82.910156%, 66.073608%)" offset="0.15625"/><stop stop-opacity="1" stop-color="rgb(8.894348%, 82.672119%, 66.009521%)" offset="0.160156"/><stop stop-opacity="1" stop-color="rgb(8.79364%, 82.435608%, 65.94696%)" offset="0.164062"/><stop stop-opacity="1" stop-color="rgb(8.692932%, 82.197571%, 65.884399%)" offset="0.167969"/><stop stop-opacity="1" stop-color="rgb(8.59375%, 81.96106%, 65.821838%)" offset="0.171875"/><stop stop-opacity="1" stop-color="rgb(8.493042%, 81.723022%, 65.757751%)" offset="0.175781"/><stop stop-opacity="1" stop-color="rgb(8.39386%, 81.486511%, 65.69519%)" offset="0.179687"/><stop stop-opacity="1" stop-color="rgb(8.293152%, 81.248474%, 65.631104%)" offset="0.183594"/><stop stop-opacity="1" stop-color="rgb(8.192444%, 81.010437%, 65.568542%)" offset="0.1875"/><stop stop-opacity="1" stop-color="rgb(8.091736%, 80.7724%, 65.504456%)" offset="0.191406"/><stop stop-opacity="1" stop-color="rgb(7.992554%, 80.535889%, 65.441895%)" offset="0.195312"/><stop stop-opacity="1" stop-color="rgb(7.891846%, 80.297852%, 65.377808%)" offset="0.199219"/><stop stop-opacity="1" stop-color="rgb(7.792664%, 80.06134%, 65.315247%)" offset="0.203125"/><stop stop-opacity="1" stop-color="rgb(7.691956%, 79.823303%, 65.25116%)" offset="0.207031"/><stop stop-opacity="1" stop-color="rgb(7.591248%, 79.586792%, 65.188599%)" offset="0.210937"/><stop stop-opacity="1" stop-color="rgb(7.49054%, 79.348755%, 65.124512%)" offset="0.214844"/><stop stop-opacity="1" stop-color="rgb(7.391357%, 79.112244%, 65.061951%)" offset="0.21875"/><stop stop-opacity="1" stop-color="rgb(7.290649%, 78.874207%, 64.99939%)" offset="0.222656"/><stop stop-opacity="1" stop-color="rgb(7.191467%, 78.637695%, 64.936829%)" offset="0.226562"/><stop stop-opacity="1" stop-color="rgb(7.090759%, 78.399658%, 64.872742%)" offset="0.230469"/><stop stop-opacity="1" stop-color="rgb(6.990051%, 78.163147%, 64.810181%)" offset="0.234375"/><stop stop-opacity="1" stop-color="rgb(6.889343%, 77.92511%, 64.746094%)" offset="0.238281"/><stop stop-opacity="1" stop-color="rgb(6.790161%, 77.687073%, 64.683533%)" offset="0.242188"/><stop stop-opacity="1" stop-color="rgb(6.689453%, 77.449036%, 64.619446%)" offset="0.246094"/><stop stop-opacity="1" stop-color="rgb(6.590271%, 77.212524%, 64.556885%)" offset="0.25"/><stop stop-opacity="1" stop-color="rgb(6.489563%, 76.974487%, 64.492798%)" offset="0.253906"/><stop stop-opacity="1" stop-color="rgb(6.388855%, 76.737976%, 64.430237%)" offset="0.257812"/><stop stop-opacity="1" stop-color="rgb(6.288147%, 76.499939%, 64.36615%)" offset="0.261719"/><stop stop-opacity="1" stop-color="rgb(6.188965%, 76.263428%, 64.303589%)" offset="0.265625"/><stop stop-opacity="1" stop-color="rgb(6.088257%, 76.025391%, 64.241028%)" offset="0.269531"/><stop stop-opacity="1" stop-color="rgb(5.989075%, 75.788879%, 64.178467%)" offset="0.273438"/><stop stop-opacity="1" stop-color="rgb(5.888367%, 75.550842%, 64.11438%)" offset="0.277344"/><stop stop-opacity="1" stop-color="rgb(5.787659%, 75.314331%, 64.051819%)" offset="0.28125"/><stop stop-opacity="1" stop-color="rgb(5.686951%, 75.076294%, 63.987732%)" offset="0.285156"/><stop stop-opacity="1" stop-color="rgb(5.587769%, 74.839783%, 63.925171%)" offset="0.289062"/><stop stop-opacity="1" stop-color="rgb(5.487061%, 74.601746%, 63.861084%)" offset="0.292969"/><stop stop-opacity="1" stop-color="rgb(5.387878%, 74.363708%, 63.798523%)" offset="0.296875"/><stop stop-opacity="1" stop-color="rgb(5.28717%, 74.125671%, 63.734436%)" offset="0.300781"/><stop stop-opacity="1" stop-color="rgb(5.186462%, 73.88916%, 63.671875%)" offset="0.304688"/><stop stop-opacity="1" stop-color="rgb(5.085754%, 73.651123%, 63.607788%)" offset="0.308594"/><stop stop-opacity="1" stop-color="rgb(4.986572%, 73.414612%, 63.545227%)" offset="0.3125"/><stop stop-opacity="1" stop-color="rgb(4.885864%, 73.176575%, 63.48114%)" offset="0.316406"/><stop stop-opacity="1" stop-color="rgb(4.786682%, 72.940063%, 63.418579%)" offset="0.320312"/><stop stop-opacity="1" stop-color="rgb(4.685974%, 72.702026%, 63.356018%)" offset="0.324219"/><stop stop-opacity="1" stop-color="rgb(4.585266%, 72.465515%, 63.293457%)" offset="0.328125"/><stop stop-opacity="1" stop-color="rgb(4.484558%, 72.227478%, 63.22937%)" offset="0.332031"/><stop stop-opacity="1" stop-color="rgb(4.385376%, 71.990967%, 63.166809%)" offset="0.335938"/><stop stop-opacity="1" stop-color="rgb(4.284668%, 71.75293%, 63.102722%)" offset="0.339844"/><stop stop-opacity="1" stop-color="rgb(4.185486%, 71.516418%, 63.040161%)" offset="0.34375"/><stop stop-opacity="1" stop-color="rgb(4.084778%, 71.278381%, 62.976074%)" offset="0.347656"/><stop stop-opacity="1" stop-color="rgb(3.98407%, 71.040344%, 62.913513%)" offset="0.351562"/><stop stop-opacity="1" stop-color="rgb(3.883362%, 70.802307%, 62.849426%)" offset="0.355469"/><stop stop-opacity="1" stop-color="rgb(3.78418%, 70.565796%, 62.786865%)" offset="0.359375"/><stop stop-opacity="1" stop-color="rgb(3.683472%, 70.327759%, 62.722778%)" offset="0.363281"/><stop stop-opacity="1" stop-color="rgb(3.58429%, 70.091248%, 62.660217%)" offset="0.367187"/><stop stop-opacity="1" stop-color="rgb(3.483582%, 69.85321%, 62.59613%)" offset="0.371094"/><stop stop-opacity="1" stop-color="rgb(3.382874%, 69.616699%, 62.533569%)" offset="0.375"/><stop stop-opacity="1" stop-color="rgb(3.282166%, 69.378662%, 62.471008%)" offset="0.378906"/><stop stop-opacity="1" stop-color="rgb(3.182983%, 69.142151%, 62.408447%)" offset="0.382812"/><stop stop-opacity="1" stop-color="rgb(3.082275%, 68.904114%, 62.34436%)" offset="0.386719"/><stop stop-opacity="1" stop-color="rgb(2.983093%, 68.667603%, 62.281799%)" offset="0.390625"/><stop stop-opacity="1" stop-color="rgb(2.882385%, 68.429565%, 62.217712%)" offset="0.394531"/><stop stop-opacity="1" stop-color="rgb(2.781677%, 68.191528%, 62.155151%)" offset="0.398437"/><stop stop-opacity="1" stop-color="rgb(2.680969%, 67.953491%, 62.091064%)" offset="0.402344"/><stop stop-opacity="1" stop-color="rgb(2.581787%, 67.71698%, 62.028503%)" offset="0.40625"/><stop stop-opacity="1" stop-color="rgb(2.481079%, 67.478943%, 61.964417%)" offset="0.410156"/><stop stop-opacity="1" stop-color="rgb(2.381897%, 67.242432%, 61.901855%)" offset="0.414062"/><stop stop-opacity="1" stop-color="rgb(2.281189%, 67.004395%, 61.837769%)" offset="0.417969"/><stop stop-opacity="1" stop-color="rgb(2.180481%, 66.767883%, 61.775208%)" offset="0.421875"/><stop stop-opacity="1" stop-color="rgb(2.079773%, 66.529846%, 61.711121%)" offset="0.425781"/><stop stop-opacity="1" stop-color="rgb(1.980591%, 66.293335%, 61.64856%)" offset="0.429687"/><stop stop-opacity="1" stop-color="rgb(1.879883%, 66.055298%, 61.585999%)" offset="0.433594"/><stop stop-opacity="1" stop-color="rgb(1.780701%, 65.818787%, 61.523438%)" offset="0.4375"/><stop stop-opacity="1" stop-color="rgb(1.679993%, 65.58075%, 61.459351%)" offset="0.441406"/><stop stop-opacity="1" stop-color="rgb(1.579285%, 65.344238%, 61.39679%)" offset="0.445312"/><stop stop-opacity="1" stop-color="rgb(1.478577%, 65.106201%, 61.332703%)" offset="0.449219"/><stop stop-opacity="1" stop-color="rgb(1.379395%, 64.868164%, 61.270142%)" offset="0.453125"/><stop stop-opacity="1" stop-color="rgb(1.278687%, 64.630127%, 61.206055%)" offset="0.457031"/><stop stop-opacity="1" stop-color="rgb(1.179504%, 64.393616%, 61.143494%)" offset="0.460937"/><stop stop-opacity="1" stop-color="rgb(1.078796%, 64.155579%, 61.079407%)" offset="0.464844"/><stop stop-opacity="1" stop-color="rgb(0.978088%, 63.919067%, 61.016846%)" offset="0.46875"/><stop stop-opacity="1" stop-color="rgb(0.87738%, 63.68103%, 60.952759%)" offset="0.472656"/><stop stop-opacity="1" stop-color="rgb(0.778198%, 63.444519%, 60.890198%)" offset="0.476562"/><stop stop-opacity="1" stop-color="rgb(0.67749%, 63.206482%, 60.826111%)" offset="0.480469"/><stop stop-opacity="1" stop-color="rgb(0.578308%, 62.969971%, 60.76355%)" offset="0.484375"/><stop stop-opacity="1" stop-color="rgb(0.4776%, 62.731934%, 60.700989%)" offset="0.488281"/><stop stop-opacity="1" stop-color="rgb(0.376892%, 62.495422%, 60.638428%)" offset="0.492187"/><stop stop-opacity="1" stop-color="rgb(0.276184%, 62.257385%, 60.574341%)" offset="0.496094"/><stop stop-opacity="1" stop-color="rgb(0.177002%, 62.020874%, 60.51178%)" offset="0.5"/><stop stop-opacity="1" stop-color="rgb(0.088501%, 61.807251%, 60.484314%)" offset="0.503906"/><stop stop-opacity="1" stop-color="rgb(0%, 61.595154%, 60.458374%)" offset="0.507812"/><stop stop-opacity="1" stop-color="rgb(0%, 61.575317%, 60.716248%)" offset="0.511719"/><stop stop-opacity="1" stop-color="rgb(0%, 61.557007%, 60.975647%)" offset="0.515625"/><stop stop-opacity="1" stop-color="rgb(0%, 61.53717%, 61.233521%)" offset="0.519531"/><stop stop-opacity="1" stop-color="rgb(0%, 61.51886%, 61.49292%)" offset="0.523438"/><stop stop-opacity="1" stop-color="rgb(0%, 61.500549%, 61.750793%)" offset="0.527344"/><stop stop-opacity="1" stop-color="rgb(0%, 61.482239%, 62.010193%)" offset="0.53125"/><stop stop-opacity="1" stop-color="rgb(0%, 61.462402%, 62.268066%)" offset="0.535156"/><stop stop-opacity="1" stop-color="rgb(0%, 61.444092%, 62.527466%)" offset="0.539062"/><stop stop-opacity="1" stop-color="rgb(0%, 61.424255%, 62.785339%)" offset="0.542969"/><stop stop-opacity="1" stop-color="rgb(0%, 61.405945%, 63.044739%)" offset="0.546875"/><stop stop-opacity="1" stop-color="rgb(0%, 61.386108%, 63.302612%)" offset="0.550781"/><stop stop-opacity="1" stop-color="rgb(0%, 61.367798%, 63.562012%)" offset="0.554688"/><stop stop-opacity="1" stop-color="rgb(0%, 61.349487%, 63.819885%)" offset="0.558594"/><stop stop-opacity="1" stop-color="rgb(0%, 61.331177%, 64.079285%)" offset="0.5625"/><stop stop-opacity="1" stop-color="rgb(0%, 61.31134%, 64.337158%)" offset="0.566406"/><stop stop-opacity="1" stop-color="rgb(0%, 61.29303%, 64.596558%)" offset="0.570312"/><stop stop-opacity="1" stop-color="rgb(0%, 61.273193%, 64.854431%)" offset="0.574219"/><stop stop-opacity="1" stop-color="rgb(0%, 61.254883%, 65.113831%)" offset="0.578125"/><stop stop-opacity="1" stop-color="rgb(0%, 61.236572%, 65.371704%)" offset="0.582031"/><stop stop-opacity="1" stop-color="rgb(0%, 61.218262%, 65.631104%)" offset="0.585938"/><stop stop-opacity="1" stop-color="rgb(0%, 61.198425%, 65.888977%)" offset="0.589844"/><stop stop-opacity="1" stop-color="rgb(0%, 61.180115%, 66.148376%)" offset="0.59375"/><stop stop-opacity="1" stop-color="rgb(0%, 61.160278%, 66.40625%)" offset="0.597656"/><stop stop-opacity="1" stop-color="rgb(0%, 61.141968%, 66.665649%)" offset="0.601562"/><stop stop-opacity="1" stop-color="rgb(0%, 61.122131%, 66.923523%)" offset="0.605469"/><stop stop-opacity="1" stop-color="rgb(0%, 61.103821%, 67.182922%)" offset="0.609375"/><stop stop-opacity="1" stop-color="rgb(0%, 61.08551%, 67.440796%)" offset="0.613281"/><stop stop-opacity="1" stop-color="rgb(0%, 61.0672%, 67.700195%)" offset="0.617188"/><stop stop-opacity="1" stop-color="rgb(0%, 61.047363%, 67.959595%)" offset="0.621094"/><stop stop-opacity="1" stop-color="rgb(0%, 61.029053%, 68.218994%)" offset="0.625"/><stop stop-opacity="1" stop-color="rgb(0%, 61.009216%, 68.476868%)" offset="0.628906"/><stop stop-opacity="1" stop-color="rgb(0%, 60.990906%, 68.736267%)" offset="0.632812"/><stop stop-opacity="1" stop-color="rgb(0%, 60.971069%, 68.994141%)" offset="0.636719"/><stop stop-opacity="1" stop-color="rgb(0%, 60.952759%, 69.25354%)" offset="0.640625"/><stop stop-opacity="1" stop-color="rgb(0%, 60.934448%, 69.511414%)" offset="0.644531"/><stop stop-opacity="1" stop-color="rgb(0%, 60.916138%, 69.770813%)" offset="0.648438"/><stop stop-opacity="1" stop-color="rgb(0%, 60.896301%, 70.028687%)" offset="0.652344"/><stop stop-opacity="1" stop-color="rgb(0%, 60.877991%, 70.288086%)" offset="0.65625"/><stop stop-opacity="1" stop-color="rgb(0%, 60.858154%, 70.545959%)" offset="0.660156"/><stop stop-opacity="1" stop-color="rgb(0%, 60.839844%, 70.805359%)" offset="0.664062"/><stop stop-opacity="1" stop-color="rgb(0%, 60.820007%, 71.063232%)" offset="0.667969"/><stop stop-opacity="1" stop-color="rgb(0%, 60.801697%, 71.322632%)" offset="0.671875"/><stop stop-opacity="1" stop-color="rgb(0%, 60.783386%, 71.580505%)" offset="0.675781"/><stop stop-opacity="1" stop-color="rgb(0%, 60.765076%, 71.839905%)" offset="0.679688"/><stop stop-opacity="1" stop-color="rgb(0%, 60.745239%, 72.097778%)" offset="0.683594"/><stop stop-opacity="1" stop-color="rgb(0%, 60.726929%, 72.357178%)" offset="0.6875"/><stop stop-opacity="1" stop-color="rgb(0%, 60.707092%, 72.615051%)" offset="0.691406"/><stop stop-opacity="1" stop-color="rgb(0%, 60.688782%, 72.874451%)" offset="0.695312"/><stop stop-opacity="1" stop-color="rgb(0%, 60.670471%, 73.132324%)" offset="0.699219"/><stop stop-opacity="1" stop-color="rgb(0%, 60.652161%, 73.391724%)" offset="0.703125"/><stop stop-opacity="1" stop-color="rgb(0%, 60.632324%, 73.649597%)" offset="0.707031"/><stop stop-opacity="1" stop-color="rgb(0%, 60.614014%, 73.908997%)" offset="0.710938"/><stop stop-opacity="1" stop-color="rgb(0%, 60.594177%, 74.16687%)" offset="0.714844"/><stop stop-opacity="1" stop-color="rgb(0%, 60.575867%, 74.42627%)" offset="0.71875"/><stop stop-opacity="1" stop-color="rgb(0%, 60.55603%, 74.684143%)" offset="0.722656"/><stop stop-opacity="1" stop-color="rgb(0%, 60.53772%, 74.943542%)" offset="0.726562"/><stop stop-opacity="1" stop-color="rgb(0%, 60.519409%, 75.201416%)" offset="0.730469"/><stop stop-opacity="1" stop-color="rgb(0%, 60.501099%, 75.460815%)" offset="0.734375"/><stop stop-opacity="1" stop-color="rgb(0%, 60.481262%, 75.718689%)" offset="0.738281"/><stop stop-opacity="1" stop-color="rgb(0%, 60.462952%, 75.978088%)" offset="0.742188"/><stop stop-opacity="1" stop-color="rgb(0%, 60.443115%, 76.235962%)" offset="0.746094"/><stop stop-opacity="1" stop-color="rgb(0%, 60.424805%, 76.495361%)" offset="0.75"/><stop stop-opacity="1" stop-color="rgb(0%, 60.404968%, 76.754761%)" offset="0.753906"/><stop stop-opacity="1" stop-color="rgb(0%, 60.386658%, 77.01416%)" offset="0.757812"/><stop stop-opacity="1" stop-color="rgb(0%, 60.368347%, 77.272034%)" offset="0.761719"/><stop stop-opacity="1" stop-color="rgb(0%, 60.350037%, 77.531433%)" offset="0.765625"/><stop stop-opacity="1" stop-color="rgb(0%, 60.3302%, 77.789307%)" offset="0.769531"/><stop stop-opacity="1" stop-color="rgb(0%, 60.31189%, 78.048706%)" offset="0.773438"/><stop stop-opacity="1" stop-color="rgb(0%, 60.292053%, 78.30658%)" offset="0.777344"/><stop stop-opacity="1" stop-color="rgb(0%, 60.273743%, 78.565979%)" offset="0.78125"/><stop stop-opacity="1" stop-color="rgb(0%, 60.253906%, 78.823853%)" offset="0.785156"/><stop stop-opacity="1" stop-color="rgb(0%, 60.235596%, 79.083252%)" offset="0.789062"/><stop stop-opacity="1" stop-color="rgb(0%, 60.217285%, 79.341125%)" offset="0.792969"/><stop stop-opacity="1" stop-color="rgb(0%, 60.198975%, 79.600525%)" offset="0.796875"/><stop stop-opacity="1" stop-color="rgb(0%, 60.179138%, 79.858398%)" offset="0.800781"/><stop stop-opacity="1" stop-color="rgb(0%, 60.160828%, 80.117798%)" offset="0.804688"/><stop stop-opacity="1" stop-color="rgb(0%, 60.140991%, 80.375671%)" offset="0.808594"/><stop stop-opacity="1" stop-color="rgb(0%, 60.122681%, 80.635071%)" offset="0.8125"/><stop stop-opacity="1" stop-color="rgb(0%, 60.10437%, 80.892944%)" offset="0.816406"/><stop stop-opacity="1" stop-color="rgb(0%, 60.08606%, 81.152344%)" offset="0.820312"/><stop stop-opacity="1" stop-color="rgb(0%, 60.066223%, 81.410217%)" offset="0.824219"/><stop stop-opacity="1" stop-color="rgb(0%, 60.047913%, 81.669617%)" offset="0.828125"/><stop stop-opacity="1" stop-color="rgb(0%, 60.028076%, 81.92749%)" offset="0.832031"/><stop stop-opacity="1" stop-color="rgb(0%, 60.009766%, 82.18689%)" offset="0.835938"/><stop stop-opacity="1" stop-color="rgb(0%, 59.989929%, 82.444763%)" offset="0.839844"/><stop stop-opacity="1" stop-color="rgb(0%, 59.971619%, 82.704163%)" offset="0.84375"/><stop stop-opacity="1" stop-color="rgb(0%, 59.953308%, 82.962036%)" offset="0.847656"/><stop stop-opacity="1" stop-color="rgb(0%, 59.934998%, 83.221436%)" offset="0.851562"/><stop stop-opacity="1" stop-color="rgb(0%, 59.915161%, 83.479309%)" offset="0.855469"/><stop stop-opacity="1" stop-color="rgb(0%, 59.896851%, 83.738708%)" offset="0.859375"/><stop stop-opacity="1" stop-color="rgb(0%, 59.877014%, 83.996582%)" offset="0.863281"/><stop stop-opacity="1" stop-color="rgb(0%, 59.858704%, 84.255981%)" offset="0.867188"/><stop stop-opacity="1" stop-color="rgb(0%, 59.838867%, 84.513855%)" offset="0.871094"/><stop stop-opacity="1" stop-color="rgb(0%, 59.820557%, 84.773254%)" offset="0.875"/><stop stop-opacity="1" stop-color="rgb(0%, 59.802246%, 85.031128%)" offset="0.878906"/><stop stop-opacity="1" stop-color="rgb(0%, 59.783936%, 85.290527%)" offset="0.882812"/><stop stop-opacity="1" stop-color="rgb(0%, 59.764099%, 85.549927%)" offset="0.886719"/><stop stop-opacity="1" stop-color="rgb(0%, 59.745789%, 85.809326%)" offset="0.890625"/><stop stop-opacity="1" stop-color="rgb(0%, 59.725952%, 86.0672%)" offset="0.894531"/><stop stop-opacity="1" stop-color="rgb(0%, 59.707642%, 86.326599%)" offset="0.898438"/><stop stop-opacity="1" stop-color="rgb(0%, 59.687805%, 86.584473%)" offset="0.902344"/><stop stop-opacity="1" stop-color="rgb(0%, 59.669495%, 86.843872%)" offset="0.90625"/><stop stop-opacity="1" stop-color="rgb(0%, 59.651184%, 87.101746%)" offset="0.910156"/><stop stop-opacity="1" stop-color="rgb(0%, 59.632874%, 87.361145%)" offset="0.914063"/><stop stop-opacity="1" stop-color="rgb(0%, 59.613037%, 87.619019%)" offset="0.917969"/><stop stop-opacity="1" stop-color="rgb(0%, 59.594727%, 87.878418%)" offset="0.921875"/><stop stop-opacity="1" stop-color="rgb(0%, 59.57489%, 88.136292%)" offset="0.925781"/><stop stop-opacity="1" stop-color="rgb(0%, 59.55658%, 88.395691%)" offset="0.929688"/><stop stop-opacity="1" stop-color="rgb(0%, 59.538269%, 88.653564%)" offset="0.933594"/><stop stop-opacity="1" stop-color="rgb(0%, 59.519958%, 88.912964%)" offset="0.9375"/><stop stop-opacity="1" stop-color="rgb(0%, 59.500122%, 89.170837%)" offset="0.941406"/><stop stop-opacity="1" stop-color="rgb(0%, 59.481812%, 89.430237%)" offset="0.945313"/><stop stop-opacity="1" stop-color="rgb(0%, 59.461975%, 89.68811%)" offset="0.949219"/><stop stop-opacity="1" stop-color="rgb(0%, 59.443665%, 89.94751%)" offset="0.953125"/><stop stop-opacity="1" stop-color="rgb(0%, 59.423828%, 90.205383%)" offset="0.957031"/><stop stop-opacity="1" stop-color="rgb(0%, 59.405518%, 90.464783%)" offset="0.960938"/><stop stop-opacity="1" stop-color="rgb(0%, 59.387207%, 90.722656%)" offset="0.964844"/><stop stop-opacity="1" stop-color="rgb(0%, 59.368896%, 90.982056%)" offset="0.96875"/><stop stop-opacity="1" stop-color="rgb(0%, 59.34906%, 91.239929%)" offset="0.972656"/><stop stop-opacity="1" stop-color="rgb(0%, 59.33075%, 91.499329%)" offset="0.976562"/><stop stop-opacity="1" stop-color="rgb(0%, 59.310913%, 91.757202%)" offset="0.980469"/><stop stop-opacity="1" stop-color="rgb(0%, 59.292603%, 92.016602%)" offset="0.984375"/><stop stop-opacity="1" stop-color="rgb(0%, 59.272766%, 92.274475%)" offset="0.988281"/><stop stop-opacity="1" stop-color="rgb(0%, 59.254456%, 92.533875%)" offset="0.992188"/><stop stop-opacity="1" stop-color="rgb(0%, 59.236145%, 92.791748%)" offset="0.996094"/><stop stop-opacity="1" stop-color="rgb(0%, 59.217834%, 93.051147%)" offset="1"/></linearGradient><clipPath id="clip-9"><rect x="0" width="1177" y="0" height="493"/></clipPath></defs><rect x="-288" width="3456" fill="rgb(100%, 100%, 100%)" y="-161.999993" height="1943.999916" fill-opacity="1"/><rect x="-288" width="3456" fill="rgb(100%, 100%, 100%)" y="-161.999993" height="1943.999916" fill-opacity="1"/><rect x="-288" width="3456" fill="rgb(3.529358%, 19.999695%, 24.708557%)" y="-161.999993" height="1943.999916" fill-opacity="1"/><g mask="url(#mask-0)"><g transform="matrix(1, 0, 0, 1, 1923, 1168)"><g id="source-5" clip-path="url(#clip-4)"><g clip-path="url(#clip-0)"><g clip-path="url(#clip-1)"><g clip-path="url(#clip-2)"><g clip-path="url(#clip-3)"><path fill="url(#linear-pattern-0)" d="M -31.628906 28.503906 L 126.769531 660.1875 L 1063.195312 425.371094 L 904.796875 -206.3125 Z M -31.628906 28.503906 " fill-rule="nonzero"/></g></g></g></g></g></g></g><g mask="url(#mask-1)"><g transform="matrix(1, 0, 0, 1, 0, 1127)"><g id="source-8" clip-path="url(#clip-9)"><g clip-path="url(#clip-5)"><g clip-path="url(#clip-6)"><g clip-path="url(#clip-7)"><g clip-path="url(#clip-8)"><path fill="url(#linear-pattern-1)" d="M -100.679688 465.90625 L 75.976562 -190.527344 L 1225.703125 118.886719 L 1049.042969 775.316406 Z M -100.679688 465.90625 " fill-rule="nonzero"/></g></g></g></g></g></g></g></svg>