<svg xmlns="http://www.w3.org/2000/svg" width="375" viewBox="0 0 375 375" height="375" version="1.0"><defs><clipPath id="a"><path d="M 21.410156 1.925781 L 353.660156 1.925781 L 353.660156 373.175781 L 21.410156 373.175781 Z M 21.410156 1.925781"/></clipPath></defs><g clip-path="url(#a)"><path fill="#4A4D4C" d="M 353.617188 1.925781 L 21.457031 1.925781 L 50.765625 334.097656 L 187.535156 373.175781 L 324.308594 334.097656 Z M 353.617188 1.925781"/></g><path fill="#201E1F" d="M 187.535156 31.234375 L 187.535156 342.890625 L 296.953125 311.628906 L 321.378906 31.234375 Z M 187.535156 31.234375"/><path fill="#4A4D4C" d="M 276.4375 80.085938 L 187.535156 80.085938 L 187.535156 119.164062 L 235.40625 119.164062 L 232.476562 158.242188 L 187.535156 158.242188 L 187.535156 197.320312 L 230.523438 197.320312 L 227.589844 241.285156 L 187.535156 254.964844 L 187.535156 295.996094 L 264.714844 270.59375 L 271.554688 158.242188 Z M 276.4375 80.085938"/><path fill="#201E1F" d="M 187.535156 80.085938 L 187.535156 119.164062 L 100.589844 119.164062 L 97.660156 80.085938 Z M 142.597656 158.242188 L 144.550781 197.320312 L 187.535156 197.320312 L 187.535156 158.242188 Z M 146.503906 216.859375 L 107.429688 216.859375 L 110.359375 270.59375 L 187.535156 295.996094 L 187.535156 254.964844 L 147.484375 241.285156 Z M 146.503906 216.859375"/></svg>