<svg xmlns="http://www.w3.org/2000/svg" width="375" viewBox="0 0 375 375" height="375" version="1.0"><defs><clipPath id="a"><path d="M 1 1.800781 L 374 1.800781 L 374 373.050781 L 1 373.050781 Z M 1 1.800781"/></clipPath></defs><g clip-path="url(#a)"><path fill="#4A4D4C" d="M 363.742188 163.9375 L 211.164062 11.542969 C 204.695312 5.046875 196.171875 1.800781 187.652344 1.800781 C 179.128906 1.800781 170.605469 5.046875 164.136719 11.542969 L 133.960938 41.679688 L 171.300781 78.976562 C 183.707031 71.695312 199.867188 73.269531 210.503906 83.894531 C 221.140625 94.519531 222.6875 110.660156 215.394531 123.019531 L 252.101562 159.683594 C 264.507812 152.398438 280.667969 153.976562 291.304688 164.601562 C 303.929688 177.210938 303.929688 197.640625 291.304688 210.25 C 278.679688 222.859375 258.226562 222.859375 245.601562 210.25 C 234.964844 199.625 233.386719 183.484375 240.675781 171.09375 L 203.96875 134.429688 C 201.351562 135.976562 198.605469 137.109375 195.730469 137.835938 L 195.730469 236.984375 C 209.652344 240.578125 219.972656 253.09375 219.972656 268.132812 C 219.972656 285.976562 205.515625 300.414062 187.652344 300.414062 C 169.785156 300.414062 155.332031 285.976562 155.332031 268.132812 C 155.332031 253.09375 165.652344 240.578125 179.570312 236.984375 L 179.570312 137.835938 C 174.171875 136.449219 169.027344 133.769531 164.800781 129.542969 C 154.164062 118.917969 152.617188 102.777344 159.90625 90.421875 L 122.535156 53.09375 L 11.558594 163.9375 C -1.445312 176.894531 -1.445312 197.957031 11.558594 210.914062 L 164.136719 363.308594 C 170.605469 369.804688 179.128906 373.050781 187.652344 373.050781 C 196.171875 373.050781 204.695312 369.804688 211.164062 363.308594 L 363.742188 210.914062 C 376.746094 197.957031 376.746094 176.894531 363.742188 163.9375 Z M 363.742188 163.9375"/></g></svg>