<svg xmlns="http://www.w3.org/2000/svg" width="375" viewBox="0 0 375 375" height="375" version="1.0"><defs><clipPath id="a"><path d="M 0 5 L 371.25 5 L 371.25 371 L 0 371 Z M 0 5"/></clipPath></defs><g clip-path="url(#a)"><path fill="#4A4D4C" d="M 185.625 5.113281 C 83.113281 5.113281 0 88.226562 0 190.738281 C 0 277.71875 59.894531 350.5 140.640625 370.640625 C 139.777344 368.132812 139.21875 365.226562 139.21875 361.621094 L 139.21875 329.894531 C 131.683594 329.894531 119.0625 329.894531 115.890625 329.894531 C 103.191406 329.894531 91.898438 324.433594 86.425781 314.289062 C 80.34375 303.011719 79.292969 285.761719 64.226562 275.214844 C 59.753906 271.703125 63.160156 267.695312 68.308594 268.238281 C 77.824219 270.929688 85.710938 277.457031 93.136719 287.140625 C 100.53125 296.839844 104.011719 299.035156 117.824219 299.035156 C 124.523438 299.035156 134.546875 298.648438 143.984375 297.164062 C 149.058594 284.277344 157.828125 272.414062 168.546875 266.8125 C 106.734375 260.457031 77.234375 229.703125 77.234375 187.953125 C 77.234375 169.980469 84.890625 152.59375 97.902344 137.945312 C 93.632812 123.402344 88.265625 93.75 99.542969 82.457031 C 127.355469 82.457031 144.167969 100.492188 148.207031 105.367188 C 162.066406 100.617188 177.289062 97.925781 193.28125 97.925781 C 209.308594 97.925781 224.589844 100.617188 238.480469 105.398438 C 242.472656 100.554688 259.300781 82.457031 287.175781 82.457031 C 298.5 93.765625 293.070312 123.542969 288.753906 138.050781 C 301.6875 152.667969 309.296875 170.011719 309.296875 187.953125 C 309.296875 229.671875 279.84375 260.410156 218.125 266.796875 C 235.109375 275.660156 247.5 300.566406 247.5 319.332031 L 247.5 361.621094 C 247.5 363.230469 247.144531 364.390625 246.957031 365.765625 C 319.289062 340.414062 371.25 271.734375 371.25 190.738281 C 371.25 88.226562 288.136719 5.113281 185.625 5.113281 Z M 185.625 5.113281"/></g></svg>