<svg xmlns="http://www.w3.org/2000/svg" width="375" viewBox="0 0 375 375" height="375" version="1.0"><defs><clipPath id="a"><path d="M 101.007812 3 L 274 3 L 274 372 L 101.007812 372 Z M 101.007812 3"/></clipPath></defs><g clip-path="url(#a)"><path fill="#4A4D4C" d="M 262.640625 3.476562 C 262.136719 3.496094 261.75 3.636719 261.488281 3.886719 L 215.84375 58.050781 L 206.53125 90.035156 C 200.203125 89.828125 193.667969 89.746094 186.972656 89.746094 C 139.53125 89.746094 101.007812 94.769531 101.007812 100.992188 C 101.007812 115.847656 272.910156 115.847656 272.910156 100.992188 C 272.910156 96.390625 252.332031 92.5 222.65625 90.660156 L 230.023438 64.332031 L 272.71875 13.019531 L 272.789062 12.949219 C 273.75 11.953125 271.878906 8.96875 268.832031 6.355469 C 266.546875 4.386719 264.140625 3.421875 262.640625 3.476562 Z M 203.027344 102.625 L 202.859375 103.125 C 202.785156 103.1875 202.785156 103.269531 202.785156 103.34375 C 202.785156 104.261719 206.507812 105.019531 211.042969 105.019531 C 215.578125 105.019531 219.320312 104.261719 219.320312 103.34375 L 219.464844 102.765625 C 220.65625 103.195312 221.3125 103.6875 221.3125 104.253906 C 221.3125 105.738281 216.707031 106.953125 210.96875 106.890625 C 205.390625 106.890625 200.769531 105.761719 200.769531 104.277344 C 200.769531 103.640625 201.6875 103.054688 203.027344 102.625 Z M 271.949219 106.84375 C 249.207031 118.960938 124.96875 119.042969 102.136719 107.011719 L 112.242188 195.796875 C 116.628906 181.644531 127.722656 162.535156 142 156.738281 C 146.679688 154.824219 151.433594 154.832031 155.894531 157.386719 C 159.765625 159.511719 163.035156 163.964844 163.40625 165.730469 C 164.300781 170.335938 161.925781 172.15625 160.070312 172.15625 C 157.832031 172.15625 156.125 168.917969 155.003906 167 C 151.957031 161.832031 147.34375 161.609375 142.429688 165.011719 C 137.292969 168.546875 132.832031 174.492188 129.710938 179.660156 C 125.914062 185.886719 122.714844 192.75 120.785156 199.609375 C 119.664062 203.574219 118.644531 209.929688 120.351562 213.683594 C 121.101562 215.242188 122.207031 216.226562 124 216.226562 C 127.722656 216.226562 133.128906 211.5625 135.734375 209.082031 C 139.078125 205.902344 143.386719 200.945312 145.023438 197.765625 L 148.910156 186.808594 C 150.839844 181.996094 156.253906 182.839844 156.253906 186.808594 C 156.253906 194.023438 153.519531 196.429688 148.839844 211.359375 C 144.527344 225.15625 143.175781 229.628906 143.175781 229.628906 C 142.660156 231.605469 140.644531 234.929688 138.496094 234.929688 C 137.597656 234.929688 136.945312 234.628906 136.574219 234.066406 C 135.824219 233.070312 135.902344 230.339844 135.976562 229.628906 C 136.121094 227.371094 140.648438 213.914062 141.398438 211.789062 C 139.910156 213.351562 138.355469 214.917969 136.648438 216.464844 C 132.628906 220.074219 126.167969 224.808594 120.664062 224.808594 C 118.132812 224.808594 116.511719 224.164062 114.953125 223.109375 L 120.59375 279.429688 C 122.078125 282.964844 149.75 291.539062 186.179688 291.539062 C 222.683594 291.539062 250.332031 282.90625 251.742188 279.429688 L 259.855469 212.511719 C 255.617188 216.191406 250.71875 220.730469 245.289062 222.988281 C 241.269531 224.621094 232.351562 225.664062 232.351562 218.9375 C 232.351562 215.253906 239.125 208.472656 243.054688 203.734375 C 244.101562 202.53125 246.535156 199.5625 246.535156 198.003906 C 246.535156 195.953125 242.085938 196.425781 237.847656 199.753906 C 235.464844 201.667969 233.222656 204.230469 231.367188 206.636719 C 228.175781 210.882812 226.46875 214.546875 225.058594 217.59375 C 220.449219 227.636719 222.011719 223.675781 218.289062 233.15625 C 214.566406 242.570312 215.175781 241.496094 214.425781 243.058594 C 213.761719 244.40625 212.789062 245.546875 211.449219 246.246094 C 210.039062 246.957031 208.105469 246.878906 206.914062 246.03125 C 206.25 245.601562 205.929688 244.679688 205.929688 243.417969 C 205.929688 242.777344 206.023438 242.136719 206.171875 241.5 C 207.289062 237.175781 211.972656 228.699219 217.328125 217.234375 C 218.523438 214.617188 218.066406 215.394531 217.90625 215.601562 C 213.296875 219.851562 209.796875 221.90625 207.203125 223.035156 C 202.890625 224.878906 197.53125 224.875 196.425781 220.136719 C 196.355469 219.851562 196.355469 219.554688 196.285156 219.273438 C 187.511719 225.777344 178.222656 227.546875 181.429688 213.542969 C 178.011719 219.347656 172.046875 224.089844 164.75 224.089844 C 161.703125 224.089844 159.472656 223.109375 158.367188 220.496094 C 156.65625 216.601562 159.328125 209.9375 161.773438 203.636719 C 163.039062 200.460938 164.765625 196.632812 167.078125 192.175781 C 168.269531 189.769531 170.1875 188.351562 172.714844 188.988281 C 173.160156 189.136719 173.546875 189.285156 173.917969 189.492188 C 175.847656 190.769531 175.101562 192.660156 174.132812 194.574219 C 171.304688 199.878906 168.855469 203.773438 167.222656 209.296875 C 166.558594 211.628906 165.71875 215.675781 168.324219 215.675781 C 170.105469 215.675781 171.8125 215.101562 173.460938 213.972656 C 176.875 211.566406 179.628906 207.964844 181.714844 204.429688 C 183.203125 201.890625 184.996094 198.5625 185.890625 195.726562 C 186.261719 194.523438 186.71875 193.390625 187.234375 192.320312 C 188.058594 190.554688 189.15625 188.726562 191.097656 188.726562 C 192.070312 188.726562 192.875 189.082031 193.476562 189.78125 C 194.742188 191.339844 194.464844 192.941406 193.789062 194.648438 C 192.300781 198.613281 190.296875 202.160156 188.652344 206.46875 C 187.679688 208.949219 186.636719 212.125 186.636719 214.738281 C 186.636719 217.144531 189.390625 216.574219 191.699219 215.578125 C 193.480469 214.804688 195.265625 213.617188 196.761719 212.414062 C 197.660156 208.953125 197.421875 209.71875 216.394531 164.148438 C 217.363281 161.816406 219.148438 160.816406 220.929688 160.816406 C 221.828125 160.816406 222.554688 161.117188 223.304688 161.605469 C 224.570312 162.527344 224.589844 164.484375 224.074219 165.96875 C 223.558594 167.320312 223.613281 166.898438 220.714844 173.402344 C 216.84375 181.960938 214.328125 188.132812 210.898438 195.988281 C 209.484375 199.242188 205.179688 209.359375 204.441406 211.765625 C 204 213.324219 203.464844 215.867188 205.1875 215.867188 C 209.203125 215.867188 219.542969 206.59375 222.371094 203.832031 C 222.515625 203.621094 222.746094 203.546875 223.042969 203.398438 C 223.484375 202.046875 223.921875 200.792969 224.289062 199.515625 C 225.332031 196.824219 226.308594 193.691406 228.25 191.507812 C 228.839844 190.792969 229.503906 190.378906 230.242188 190.378906 C 232.316406 190.378906 233.359375 191.21875 233.359375 193.207031 C 233.359375 193.980469 232.851562 196.824219 232.546875 197.597656 C 233.589844 196.539062 234.6875 195.488281 235.878906 194.429688 C 247.039062 184.597656 254.984375 189.617188 254.984375 194.574219 C 254.984375 199.804688 248.375 207.082031 244.734375 211.121094 C 243.542969 212.46875 241.089844 214.9375 241.015625 215.652344 C 241.015625 216.570312 241.675781 216.945312 242.648438 216.945312 C 244.136719 216.945312 247.40625 214.460938 248.601562 213.613281 C 252.324219 210.851562 257.359375 206.609375 260.933594 203.636719 Z M 124.71875 286.214844 L 135.808594 304.199219 L 140.125 360.375 C 140.125 366.675781 161.167969 371.765625 187.042969 371.765625 C 212.921875 371.765625 233.960938 366.675781 233.960938 360.375 L 237.394531 303.621094 L 247.855469 286.214844 C 218.402344 298.039062 155.363281 298.453125 124.71875 286.214844 Z M 124.71875 286.214844"/></g></svg>