<svg xmlns="http://www.w3.org/2000/svg" width="375" viewBox="0 0 375 375" height="375" version="1.0"><defs><clipPath id="a"><path d="M 24.664062 2 L 350.164062 2 L 350.164062 372 L 24.664062 372 Z M 24.664062 2"/></clipPath></defs><g clip-path="url(#a)"><path fill="#4A4D4C" d="M 54.210938 335.011719 L 24.570312 2.734375 L 350.253906 2.734375 L 320.589844 334.964844 L 187.207031 371.910156 Z M 54.210938 335.011719"/></g><path fill="#201E1F" d="M 295.1875 313.808594 L 320.542969 29.902344 L 187.414062 29.902344 L 187.414062 343.675781 Z M 295.1875 313.808594"/><path fill="#201E1F" d="M 187.273438 70.652344 L 85.167969 70.652344 L 96.167969 193.890625 L 187.414062 193.890625 L 187.414062 153.140625 L 133.464844 153.140625 L 129.734375 111.414062 L 187.414062 111.414062 L 187.414062 70.652344 Z M 187.414062 258.84375 L 187.238281 258.890625 L 141.832031 246.640625 L 138.945312 214.140625 L 97.992188 214.140625 L 103.707031 278.125 L 187.226562 301.199219 L 187.414062 301.140625 Z M 187.414062 258.84375"/><path fill="#4A4D4C" d="M 187.273438 193.890625 L 237.484375 193.890625 L 232.867188 246.730469 L 187.390625 258.996094 L 187.390625 301.394531 L 270.980469 278.238281 L 282.175781 153.121094 L 187.414062 153.121094 Z M 288.433594 81.589844 L 289.402344 70.652344 L 187.25 70.652344 L 187.25 111.402344 L 285.730469 111.402344 L 286.539062 102.242188 Z M 288.433594 81.589844"/></svg>