<svg xmlns="http://www.w3.org/2000/svg" width="375" viewBox="0 0 375 375" height="375" version="1.0"><defs><clipPath id="a"><path d="M 1.839844 1.839844 L 373.089844 1.839844 L 373.089844 373.089844 L 1.839844 373.089844 Z M 1.839844 1.839844"/></clipPath></defs><g clip-path="url(#a)"><path fill="#4A4D4C" d="M 1.839844 1.839844 L 373.089844 1.839844 L 373.089844 373.089844 L 1.839844 373.089844 Z M 1.839844 1.839844"/></g><path fill="#201E1F" d="M 244.574219 279.730469 C 251.710938 291.320312 259.464844 302.425781 275.894531 302.425781 C 289.691406 302.425781 296.929688 295.570312 296.929688 286.082031 C 296.929688 274.726562 289.445312 270.695312 274.265625 264.085938 L 265.941406 260.539062 C 241.925781 250.347656 225.949219 237.582031 225.949219 210.617188 C 225.949219 185.761719 244.976562 166.847656 274.707031 166.847656 C 295.878906 166.847656 311.089844 174.179688 322.0625 193.382812 L 296.136719 209.957031 C 290.433594 199.765625 284.265625 195.753906 274.707031 195.753906 C 264.953125 195.753906 258.773438 201.910156 258.773438 209.957031 C 258.773438 219.898438 264.960938 223.917969 279.246094 230.074219 L 287.566406 233.621094 C 315.875 245.679688 331.839844 257.992188 331.839844 285.667969 C 331.839844 315.492188 308.285156 331.839844 276.667969 331.839844 C 245.738281 331.839844 228.175781 316.320312 218.402344 297.105469 Z M 125.09375 280.574219 C 130.3125 289.917969 138.242188 297.105469 149.648438 297.105469 C 160.558594 297.105469 166.839844 292.796875 166.839844 276.039062 L 166.839844 166.839844 L 201.210938 166.839844 L 201.210938 281.316406 C 201.210938 316.039062 181.070312 331.839844 151.660156 331.839844 C 125.082031 331.839844 105.902344 313.832031 98.085938 297.105469 Z M 125.09375 280.574219"/></svg>