<svg xmlns="http://www.w3.org/2000/svg" width="375" viewBox="0 0 375 375" height="375" version="1.0"><defs><clipPath id="a"><path d="M 23 3 L 352 3 L 352 373.171875 L 23 373.171875 Z M 23 3"/></clipPath></defs><g clip-path="url(#a)"><path fill="#4A4D4C" d="M 187.464844 373.121094 C 182.363281 373.121094 177.605469 371.757812 173.195312 369.386719 L 127.996094 342.523438 C 121.203125 338.789062 124.597656 337.429688 126.636719 336.75 C 135.8125 333.683594 137.511719 333.003906 147.027344 327.566406 C 148.046875 326.886719 149.40625 327.234375 150.425781 327.914062 L 185.082031 348.644531 C 186.441406 349.324219 188.144531 349.324219 189.171875 348.644531 L 324.746094 270.121094 C 326.105469 269.441406 326.785156 268.082031 326.785156 266.375 L 326.785156 109.652344 C 326.785156 107.953125 326.105469 106.59375 324.746094 105.914062 L 189.171875 27.722656 C 187.8125 27.042969 186.105469 27.042969 185.082031 27.722656 L 49.503906 105.914062 C 48.140625 106.59375 47.460938 108.292969 47.460938 109.652344 L 47.460938 266.375 C 47.460938 267.738281 48.140625 269.441406 49.5 270.121094 L 86.539062 291.53125 C 106.589844 301.730469 119.164062 289.839844 119.164062 277.933594 L 119.164062 123.25 C 119.164062 121.214844 120.863281 119.171875 123.242188 119.171875 L 140.570312 119.171875 C 142.609375 119.171875 144.648438 120.875 144.648438 123.253906 L 144.648438 277.9375 C 144.648438 304.796875 130.035156 320.4375 104.550781 320.4375 C 96.734375 320.4375 90.617188 320.4375 73.289062 311.929688 L 37.605469 291.535156 C 28.773438 286.441406 23.335938 276.921875 23.335938 266.722656 L 23.335938 110 C 23.335938 99.796875 28.773438 90.277344 37.605469 85.179688 L 173.195312 6.648438 C 181.683594 1.886719 193.25 1.886719 201.738281 6.648438 L 337.324219 85.179688 C 346.160156 90.277344 351.597656 99.796875 351.597656 109.996094 L 351.597656 266.71875 C 351.597656 276.917969 346.160156 286.4375 337.324219 291.527344 L 201.738281 370.0625 C 197.328125 372.101562 192.222656 373.117188 187.464844 373.117188 Z M 229.269531 265.363281 C 169.796875 265.363281 157.5625 238.152344 157.5625 215.035156 C 157.5625 212.996094 159.253906 210.957031 161.640625 210.957031 L 179.308594 210.957031 C 181.347656 210.957031 183.042969 212.316406 183.042969 214.355469 C 185.761719 232.378906 193.582031 241.21875 229.601562 241.21875 C 258.144531 241.21875 270.378906 234.753906 270.378906 219.460938 C 270.378906 210.625 266.980469 204.160156 222.472656 199.746094 C 185.425781 196 162.320312 187.839844 162.320312 158.273438 C 162.320312 130.730469 185.425781 114.414062 224.164062 114.414062 C 267.660156 114.414062 289.074219 129.371094 291.792969 162.003906 C 291.792969 163.03125 291.445312 164.042969 290.765625 165.070312 C 290.085938 165.75 289.074219 166.429688 288.046875 166.429688 L 270.378906 166.429688 C 268.683594 166.429688 266.980469 165.070312 266.644531 163.363281 C 262.570312 144.671875 252.027344 138.554688 224.164062 138.554688 C 192.902344 138.554688 189.171875 149.433594 189.171875 157.589844 C 189.171875 167.445312 193.582031 170.511719 235.71875 175.949219 C 277.519531 181.386719 297.226562 189.199219 297.226562 218.4375 C 296.882812 248.351562 272.417969 265.363281 229.269531 265.363281 Z M 229.269531 265.363281"/></g></svg>