<svg xmlns="http://www.w3.org/2000/svg" width="375" viewBox="0 0 375 375" height="375" version="1.0"><defs><clipPath id="a"><path d="M 1.722656 113.921875 L 372.972656 113.921875 L 372.972656 268.421875 L 1.722656 268.421875 Z M 1.722656 113.921875"/></clipPath></defs><g clip-path="url(#a)"><path fill="#4A4D4C" d="M 1.917969 113.921875 L 372.777344 113.921875 L 372.777344 245.246094 L 187.347656 245.246094 L 187.347656 268.421875 L 102.359375 268.421875 L 102.359375 245.246094 L 1.917969 245.246094 Z M 1.917969 113.921875"/></g><path fill="#201E1F" d="M 25.09375 222.070312 L 63.726562 222.070312 L 63.726562 160.269531 L 86.90625 160.269531 L 86.90625 222.070312 L 102.359375 222.070312 L 102.359375 137.09375 L 25.09375 137.09375 Z M 125.535156 137.09375 L 125.535156 245.246094 L 164.167969 245.246094 L 164.167969 222.070312 L 202.800781 222.070312 L 202.800781 137.09375 Z M 187.347656 198.894531 L 164.167969 198.894531 L 164.167969 160.269531 L 187.347656 160.269531 Z M 225.980469 137.09375 L 225.980469 222.070312 L 264.609375 222.070312 L 264.609375 160.269531 L 287.789062 160.269531 L 287.789062 222.070312 L 310.96875 222.070312 L 310.96875 160.269531 L 334.148438 160.269531 L 334.148438 222.070312 L 349.597656 222.070312 L 349.597656 137.09375 Z M 225.980469 137.09375"/></svg>